<?xml version="1.0" standalone="no"?>
<!DOCTYPE svg PUBLIC "-//W3C//DTD SVG 1.1//EN" "http://www.w3.org/Graphics/SVG/1.1/DTD/svg11.dtd" >
<svg xmlns="http://www.w3.org/2000/svg">
<metadata>
This is a custom SVG webfont generated by Font Squirrel.
Copyright   : Copyright c 1991 Adobe Systems Incorporated  All Rights ReservedBerthold Walbaum Book is a trademark of H Berthold AG
Foundry     : Adobe Systems Incorporated
</metadata>
<defs>
<font id="BertholdWalbaumBookRegular" horiz-adv-x="1366" >
<font-face units-per-em="2048" ascent="1638" descent="-410" />
<missing-glyph horiz-adv-x="598" />
<glyph unicode=" "  horiz-adv-x="598" />
<glyph unicode="&#x09;" horiz-adv-x="598" />
<glyph unicode="&#xa0;" horiz-adv-x="598" />
<glyph unicode="!" horiz-adv-x="681" d="M180 166q0 39 15.5 74.5t43 63.5t63.5 43t77 15t77 -15t63.5 -41.5t43 -62.5t15.5 -77q0 -84 -57.5 -141.5t-141.5 -57.5q-82 0 -139 58q-29 29 -44.5 64.5t-15.5 76.5zM184 1278q0 55 16.5 94t44 63.5t62.5 36t72 11.5q51 0 88 -18.5t60.5 -47t33.5 -65.5t10 -76 q0 -25 -3 -49.5t-7 -50.5l-143 -717h-76l-147 719q-4 25 -7.5 50t-3.5 50z" />
<glyph unicode="&#x22;" horiz-adv-x="811" d="M66 1413q0 31 12 54.5t31.5 38t43 21.5t46.5 7q39 0 67.5 -17.5t42.5 -46.5q10 -20 10 -39.5t-2 -37.5l-96 -531h-55l-96 506q-2 10 -3 21.5t-1 23.5zM492 1413q0 31 12 54.5t31.5 38t43 21.5t46.5 7q39 0 68.5 -17.5t41.5 -46.5q10 -20 10 -39.5t-2 -37.5l-96 -531h-55 l-96 506q-2 10 -3 21.5t-1 23.5z" />
<glyph unicode="#" d="M86 438v203h276l27 195h-256v204h283l55 406h213l-57 -406h200l56 406h207l-56 -406h240v-204h-266l-29 -195h252v-203h-277l-63 -438h-207l64 438h-203l-62 -438h-209l62 438h-250zM569 641h205l27 195h-203z" />
<glyph unicode="$" horiz-adv-x="1067" d="M39 291q0 72 42 121t112 49q78 0 118.5 -51.5t40.5 -112.5q0 -31 -10 -66q-4 -16 -7 -30.5t-3 -30.5q0 -20 6 -36.5t16 -29.5q29 -35 69 -42t69 -9v500q-86 55 -161 109.5t-130.5 113t-87 128t-31.5 155.5q0 74 27.5 138.5t74.5 111.5q61 59 141.5 86.5t166.5 38.5v229 h88v-229l50 -5.5t69.5 -11.5t78.5 -22.5t78 -38.5q59 -39 86 -89t27 -94q0 -23 -7.5 -49t-24.5 -48.5t-45 -39t-69 -16.5q-43 0 -72.5 13.5t-48 33.5t-26.5 45t-8 49q0 23 10 58q4 14 7 27.5t3 27.5q0 43 -30.5 63.5t-77.5 26.5v-420l166 -119q77 -57 134.5 -118.5t89 -130 t31.5 -154.5q0 -18 -3 -49t-13 -69t-32.5 -82t-61.5 -87q-41 -47 -84 -74.5t-83 -44t-77 -23.5t-67 -11v-246h-88v246q-137 2 -225.5 34.5t-138.5 79.5t-69.5 100.5t-19.5 94.5zM371 1198q0 -33 12 -60.5t29.5 -51t39 -43t40.5 -33.5v342q-18 -8 -39 -19.5t-39.5 -30 t-30.5 -43t-12 -61.5zM580 61l38 21q23 12 43.5 33.5t35 53.5t14.5 81q0 47 -13.5 84t-33 65.5t-42.5 50.5l-42 37v-426z" />
<glyph unicode="%" horiz-adv-x="1792" d="M57 987q0 47 5.5 99.5t16.5 101.5t29.5 94t47.5 78q41 47 100 75.5t125 30.5q35 0 64.5 -6t54.5 -16q70 -31 110.5 -85t62 -117.5t28 -127t6.5 -113.5q0 -25 -2.5 -67.5t-11.5 -92.5t-28.5 -103.5t-56.5 -96.5q-43 -53 -103.5 -82t-127.5 -29q-72 0 -131.5 33 t-101.5 92.5t-64.5 143.5t-22.5 188zM305 997q0 -82 2 -162.5t12 -152.5q4 -31 17.5 -60.5t42.5 -29.5t43 28.5t20 61.5q12 59 14.5 133t2.5 166q0 82 -1 168t-12 158q-6 33 -18 66.5t-43 33.5t-45 -34t-21 -68q-2 -12 -5 -33t-5 -56.5t-3 -88t-1 -130.5zM410 0l790 1448 h166l-791 -1448h-165zM1073 444q0 47 5 98.5t16.5 100.5t30 94t46.5 78q41 47 100.5 76t125.5 31q35 0 64.5 -6.5t54.5 -16.5q70 -31 110.5 -85t62 -116.5t27.5 -126t6 -112.5q0 -25 -2 -68t-11 -93t-28.5 -103.5t-56.5 -96.5q-43 -51 -102.5 -80.5t-128.5 -29.5 q-74 0 -132.5 32.5t-100.5 92t-64.5 144.5t-22.5 187zM1323 455q0 -82 2 -164t12 -152q4 -33 17.5 -61.5t42 -28.5t43 28.5t20.5 59.5q12 59 14.5 134t2.5 167q0 82 -1 167t-12 157q-6 33 -18 66.5t-43 33.5t-45.5 -32.5t-20.5 -67.5q-2 -12 -5 -32.5t-5 -56.5t-3 -88 t-1 -130z" />
<glyph unicode="&#x26;" horiz-adv-x="1662" d="M45 328q0 86 36 156.5t95.5 131t139 113.5t169.5 107q-25 49 -42 88t-28.5 73.5t-16.5 68.5t-5 77q0 80 25.5 137t66.5 96t92.5 62.5t100.5 36t92 16.5t70 4q150 0 238.5 -55.5t88.5 -153.5q0 -49 -18.5 -87t-47 -67.5t-63 -54t-67.5 -45.5l-105 -67l277 -525l46 98 q19 42 32.5 75.5t19.5 62.5t6 57q0 51 -20.5 80t-52 42t-68.5 15t-70 2v62h584v-62q-41 0 -84 -2t-80 -18q-29 -12 -47 -28.5t-34.5 -44t-35 -69.5t-43.5 -106q-31 -74 -55 -124l-57 -113q51 -90 98 -149.5t115 -59.5q53 0 86 43t33 121q0 47 -8.5 87t-18.5 68l67 27l22 -88 q11 -47 11 -101q0 -86 -31.5 -151.5t-83 -108.5t-117 -64.5t-132.5 -21.5q-59 0 -107.5 12.5t-85.5 32t-65.5 42t-48.5 40.5l-84 -46q-43 -24 -93.5 -42t-110 -29.5t-132.5 -11.5q-35 0 -86.5 5t-106.5 22q-80 25 -131 65.5t-79.5 88t-39 95.5t-10.5 85zM397 551 q0 -53 15.5 -105.5t36.5 -95.5q57 -129 121.5 -188.5t150.5 -59.5q47 0 82 15.5t67 32.5l-48 70l-37 58l-35 59l-43 77l-189 350l-38 -30q-22 -17 -40 -41.5t-30.5 -59.5t-12.5 -82zM731 1298q0 -53 24.5 -110.5t75.5 -153.5q23 16 42.5 34.5t37.5 49.5q20 29 33.5 72 t13.5 90q0 39 -11 66.5t-29.5 45t-40 25.5t-41.5 8q-41 0 -73 -32t-32 -95z" />
<glyph unicode="'" horiz-adv-x="425" d="M88 1413q0 63 43 92t90 29q37 0 66.5 -17.5t42.5 -46.5q10 -20 10 -39.5t-2 -37.5l-96 -531h-56l-96 506q0 10 -1 21.5t-1 23.5z" />
<glyph unicode="(" horiz-adv-x="937" d="M156 471q0 160 41 281.5t96 214.5q57 98 125.5 172.5t142.5 134t152 107.5l153 94l37 -68q-61 -41 -115.5 -86t-105.5 -131q-80 -135 -110.5 -320.5t-30.5 -416.5q0 -131 12 -272.5t61 -282.5q29 -84 64 -140.5t71.5 -97.5t75.5 -70l78 -55l-37 -67q-111 64 -209 128 t-196 164q-141 141 -223 317.5t-82 393.5z" />
<glyph unicode=")" horiz-adv-x="937" d="M33 -465q61 41 115.5 86t107.5 131q80 135 109.5 321.5t29.5 415.5q0 129 -12 271.5t-61 283.5q-29 82 -64 139.5t-71.5 98.5t-75.5 70l-78 55l37 68q111 -63 209 -128t198 -165q145 -147 224 -323.5t79 -387.5q0 -162 -41 -282.5t-96 -213.5q-59 -98 -126.5 -172.5 t-141.5 -134t-152 -107.5l-153 -93z" />
<glyph unicode="*" horiz-adv-x="768" d="M14 1163q0 18 6.5 44t21.5 50.5t38.5 41t58.5 16.5q20 0 38 -6t34 -19.5t35 -36.5l45 -53q23 -27 34 -37t33 -26q-10 20 -16 34.5t-13 26.5t-18 27l-26 37q-12 16 -24.5 41.5t-12.5 58.5q0 49 38 85t99 36q68 0 101.5 -39t33.5 -80q0 -35 -16.5 -62.5t-50.5 -78.5 q-14 -18 -27 -45q-4 -10 -7 -20.5t-7 -20.5l30 30q10 10 19.5 21.5t19.5 21.5q41 47 69 74t75 27q51 0 89 -43t38 -107q0 -59 -34 -86.5t-81 -27.5q-10 0 -17.5 1t-18.5 3t-26.5 6t-42.5 10q-29 8 -53 11l-57 7q39 -27 58.5 -35t54.5 -16l42 -14q24 -8 43 -22.5t33.5 -36 t14.5 -54.5q0 -23 -9.5 -48t-28 -46.5t-46 -36t-62.5 -14.5q-51 0 -72.5 23.5t-31.5 41.5l-7 19q-3 8 -4 20.5t-3.5 31.5t-4.5 50q-2 29 -6 53.5t-10 53.5q-14 -72 -21 -125v-34q0 -17 -4 -34q-10 -47 -40.5 -73.5t-75.5 -26.5q-27 0 -53.5 10t-47 28.5t-34 43t-13.5 53.5 q0 33 13.5 54.5t33 37t45 24.5t50.5 19q37 12 57 22.5t49 30.5q-31 -4 -57.5 -8t-55.5 -12l-36 -10q-14 -4 -23.5 -6l-17 -3.5t-15.5 -1.5q-20 0 -41.5 7.5t-40 21.5t-30 36.5t-11.5 53.5z" />
<glyph unicode="+" d="M86 492v208h494v494h211v-494h491v-208h-491v-492h-211v492h-494z" />
<glyph unicode="," horiz-adv-x="598" d="M84 149.5q0 38.5 14.5 74.5t41 64.5t64.5 46t83 17.5q102 0 164.5 -77.5t62.5 -198.5q0 -102 -36 -179t-85 -132.5t-101 -92.5t-87 -57l-47 72q43 29 79.5 56.5t71.5 76.5q35 47 42 79.5t11 71.5q-20 -6 -37.5 -10t-43.5 -4q-43 0 -80 15.5t-62.5 42t-40 61.5t-14.5 73.5 z" />
<glyph unicode="-" horiz-adv-x="768" d="M57 424v250h693v-250h-693z" />
<glyph unicode="." horiz-adv-x="598" d="M94 164q0 41 15.5 76.5t43 63.5t63.5 43t77 15t77 -15t63.5 -43t43 -63.5t15.5 -76.5q0 -84 -57.5 -141.5t-141.5 -57.5q-80 0 -139 60q-29 27 -44.5 63.5t-15.5 75.5z" />
<glyph unicode="/" horiz-adv-x="854" d="M23 0l557 1446h245l-559 -1446h-243z" />
<glyph unicode="0" horiz-adv-x="1193" d="M72 709q0 162 27.5 278.5t72.5 197.5t101.5 131t113.5 77.5t109.5 37t91.5 9.5q141 0 247.5 -66.5t165.5 -163.5q57 -90 87 -224t30 -288q0 -133 -23.5 -253.5t-70.5 -211.5q-37 -66 -84 -113.5t-102.5 -78.5t-117 -46t-122.5 -15q-53 0 -111.5 13t-114 43t-105.5 77 t-89 114q-49 86 -77.5 207t-28.5 275zM457 672q0 -23 1 -75t2 -115.5t5 -129t10 -114.5q4 -35 13.5 -68t23.5 -59.5t35.5 -43t52.5 -16.5q43 0 67.5 31t37 82t16.5 117.5t6 138.5q6 184 6 371q0 47 -1 119.5t-5 148.5t-15.5 143.5t-29.5 104.5q-6 14 -26.5 38.5t-63.5 24.5 q-29 0 -48.5 -14.5t-32.5 -39t-20.5 -55t-11.5 -61.5q-4 -33 -8 -94.5t-7 -136t-5 -152t-2 -145.5z" />
<glyph unicode="1" horiz-adv-x="1193" d="M242 1012q92 63 153.5 111t110.5 92.5t92 94.5t98 122h135v-1217l5 -156h159v-59h-727v59h162l4 156v846l-151 -107z" />
<glyph unicode="2" horiz-adv-x="1193" d="M70 51l139 133q76 76 152.5 162t139 183.5t102.5 208t40 235.5q0 143 -52 228t-153 85q-41 0 -78.5 -19.5t-66.5 -54t-47.5 -86t-18.5 -114.5q0 -86 28 -138.5t73 -111.5l-47 -51l-44 54q-24 30 -43.5 67.5t-33 86t-13.5 107.5q0 94 33 170t90.5 129t137 81t176.5 28 q102 0 186 -31t144.5 -85t94 -130t33.5 -166q0 -80 -24.5 -143.5t-64.5 -117.5t-92 -102l-107 -94l-277 -213h375q51 2 82 11.5t51.5 31t34.5 58t33 94.5h80l-189 -547h-844z" />
<glyph unicode="3" horiz-adv-x="1193" d="M106 297l70 29q25 -47 50.5 -89t70.5 -85q53 -51 102.5 -70t85.5 -19q47 0 81 19.5t55 48.5q16 25 25 59.5t14.5 70.5t6.5 70t1 56q0 72 -4.5 139.5t-20.5 118.5t-47 82t-86 31q-49 0 -88 -29t-82 -70l-84 -77l-53 53l452 424h-370l-82 -182l-72 32l223 490h695l20 -58 l-553 -516q20 6 53 14.5t90 8.5q86 0 162 -30t131.5 -84t88 -130t32.5 -168q0 -82 -29.5 -166t-90 -152.5t-152.5 -111.5t-219 -43q-115 0 -194 33t-132 82t-88 107.5t-62 111.5z" />
<glyph unicode="4" horiz-adv-x="1193" d="M41 379v98l698 944h172v-944h138v180h75v-456h-75v178h-138v-379h-385v379h-485zM143 477h383v522z" />
<glyph unicode="5" horiz-adv-x="1193" d="M57 352l70 29l39 -83q18 -38 47 -79q41 -59 102.5 -101t133.5 -42q47 0 90 22.5t73 71.5q33 55 43.5 127t10.5 125q0 23 -2 53.5t-9 65.5q-14 78 -43.5 123t-63.5 67.5t-64.5 28.5t-47.5 6q-23 0 -43 -5t-39 -13q-61 -29 -86.5 -70t-40.5 -76l-69 12l69 781h529 q47 2 75.5 9t49 22.5t37.5 42.5l38 69l60 -29q-55 -143 -97 -229t-89.5 -133t-106.5 -62.5t-148 -17.5h-294l-31 -324q14 14 43 37t69.5 43.5t98 35.5t131.5 15q100 0 187 -29.5t151.5 -84.5t101.5 -135t37 -181q0 -96 -35 -182t-100.5 -152.5t-160.5 -105.5t-218 -39 q-119 0 -200 33t-136 86t-92 123.5t-70 144.5z" />
<glyph unicode="6" horiz-adv-x="1193" d="M68 662q0 90 10 176t37 172q23 72 58.5 136t86.5 118q31 33 75 63.5t99 55t122 40t146 15.5q82 0 153 -19.5t123 -55.5t82 -85t30 -107q0 -29 -8.5 -57.5t-26 -53t-46 -39.5t-67.5 -15q-57 0 -106.5 37.5t-49.5 107.5q0 29 8.5 50.5t24.5 58.5q4 10 8 22t4 23 q0 39 -32.5 53t-67.5 14q-47 0 -96 -23.5t-86 -80.5q-27 -41 -42 -93.5t-23.5 -109.5t-11.5 -117.5t-5 -116.5q14 14 35.5 32t50.5 32t70 24.5t96 10.5q98 0 176 -36t133 -99.5t84 -149.5t29 -186q0 -94 -30 -184.5t-93.5 -160t-161.5 -111.5t-235 -42q-147 0 -252 52.5 t-172.5 144.5t-98 221t-30.5 283zM463 440q0 -47 4 -115.5t18.5 -133t42 -110.5t76.5 -46q25 0 42.5 10t28.5 24.5t17 30t10 23.5q23 61 33 145t10 156q0 6 -1 41t-5 81t-14 97t-26.5 95t-43.5 71q-25 25 -58 25h-5q-16 -2 -45 -19.5t-49 -73.5q-12 -31 -18.5 -77t-10.5 -90 t-5 -82t-1 -52z" />
<glyph unicode="7" horiz-adv-x="1193" d="M72 893l137 504h911l-90 -177q-41 -81 -74.5 -160t-62.5 -162t-55 -185q-29 -111 -46.5 -207t-26.5 -182t-13 -166t-7 -158h-423q29 127 62.5 233.5t90.5 222t145.5 259t225.5 344.5h-651l-52 -185z" />
<glyph unicode="8" horiz-adv-x="1193" d="M90 340q0 86 32 147.5t76 102.5t88 64l68 36l-79 56q-32 24 -56 53q-37 43 -60.5 104.5t-23.5 132.5q0 88 36 162t100.5 127t155.5 82t200 29q92 0 172 -22.5t138 -62.5t92 -94.5t34 -119.5q0 -61 -23.5 -105.5t-57.5 -75t-71 -49.5l-63 -30q41 -27 80 -55.5t73 -65.5 q47 -53 77 -127t30 -164q0 -74 -27.5 -162t-89 -164t-163 -127t-248.5 -51q-102 0 -192.5 26.5t-156 76t-103.5 119t-38 157.5zM352 354q0 -88 24.5 -147.5t62.5 -96t82 -53t85 -16.5q51 0 94 19.5t74 52t48.5 72.5t17.5 83q0 55 -23.5 99.5t-57.5 78t-70 57.5l-60 40 l-183 96q-41 -63 -67.5 -125t-26.5 -160zM418 1210q0 -41 18.5 -72.5t50 -59t74.5 -53.5t92 -52l103 -51q20 43 34.5 88t14.5 112q0 117 -60.5 179.5t-146.5 62.5q-78 0 -129 -43t-51 -111z" />
<glyph unicode="9" horiz-adv-x="1193" d="M49 942q0 94 30 184.5t93.5 160t161.5 111.5t235 42q147 0 252 -52.5t171.5 -144.5t98 -221t31.5 -283q0 -90 -10 -176t-37 -172q-23 -72 -58.5 -136.5t-86.5 -117.5q-33 -33 -77 -64.5t-99.5 -56t-122 -39t-144.5 -14.5q-82 0 -152.5 19.5t-122.5 55.5t-82 84t-30 107 q0 27 8.5 56.5t26 53t45 39t68.5 15.5q57 0 105 -37t48 -106q0 -29 -7 -50.5t-23 -58.5q-4 -10 -8.5 -22.5t-4.5 -22.5q0 -39 33 -53t68 -14q47 0 96 23.5t86 80.5q27 39 42 91t23.5 110.5t11.5 119t5 115.5l-37 -31q-20 -17 -49 -31.5t-70 -25t-96 -10.5q-98 0 -176 36 t-133.5 99.5t-84 149.5t-28.5 186zM444 977q0 -8 1 -42t5.5 -80t14.5 -97t26.5 -95.5t43.5 -70.5q25 -25 58 -25h5q16 2 45 19.5t49 72.5q12 31 18.5 77t10.5 90t5 81t1 54q0 45 -4 114.5t-18.5 133t-42 109.5t-76.5 46q-25 0 -42.5 -10.5t-28.5 -24.5t-18.5 -28.5 t-9.5 -22.5q-23 -61 -33 -145t-10 -156z" />
<glyph unicode=":" horiz-adv-x="681" d="M184 164q0 41 15.5 76.5t42 63.5t63.5 43t78 15q39 0 75 -15t63.5 -43t43 -63.5t15.5 -76.5q0 -82 -57.5 -139.5t-139.5 -57.5q-84 0 -141.5 57.5t-57.5 139.5zM184 827q0 82 57.5 139.5t141.5 57.5q39 0 75 -15.5t63.5 -43t43 -63.5t15.5 -75q0 -84 -57.5 -141 t-139.5 -57q-84 0 -141.5 57t-57.5 141z" />
<glyph unicode=";" horiz-adv-x="681" d="M170 151.5q0 38.5 14.5 74.5t41 64.5t64.5 46t83 17.5q102 0 164.5 -77.5t62.5 -200.5q0 -102 -36 -178t-85 -131.5t-101 -92t-87 -57.5l-47 72q43 29 79.5 56.5t71.5 76.5q35 47 42 79.5t12 71.5q-20 -6 -38 -10t-44 -4q-43 0 -80 15.5t-62.5 42t-40 61.5t-14.5 73.5z M184 827q0 82 57.5 139.5t141.5 57.5q39 0 75 -15.5t63.5 -43t43 -63.5t15.5 -75q0 -84 -57.5 -141t-139.5 -57q-84 0 -141.5 57t-57.5 141z" />
<glyph unicode="&#x3c;" d="M0 614v213l1366 625v-231l-1083 -500l1083 -498v-229z" />
<glyph unicode="=" d="M0 299v211h1366v-211h-1366zM0 684v211h1366v-211h-1366z" />
<glyph unicode="&#x3e;" d="M0 -6v229l1081 498l-1081 500v231l1366 -625v-213z" />
<glyph unicode="?" horiz-adv-x="1024" d="M109 1212q0 55 27.5 105.5t79.5 88.5t127 60.5t171 22.5q55 0 107.5 -8t105.5 -27q236 -88 236 -373q0 -84 -18.5 -141t-49.5 -97t-71 -66.5t-85 -47.5l-69 -35l-70 -32q-39 -18 -60.5 -34t-32.5 -32t-14.5 -36.5t-3.5 -49.5v-49h-77v55q0 63 9 101t44 85l32 39l31 39 q25 31 38.5 55.5t19.5 48t8 49t2 58.5v156q-2 47 -5 88t-16 80q-14 41 -41.5 70.5t-70.5 29.5q-37 0 -56.5 -22.5t-19.5 -51.5q0 -12 2 -23t6 -23.5t10.5 -25t10.5 -26.5q10 -31 10 -59q0 -66 -42 -106t-108 -40q-80 0 -123.5 52t-43.5 122zM256 164q0 41 15.5 78t43 63.5 t63.5 42t77 15.5t76.5 -15.5t63.5 -43.5t43 -63.5t15 -76.5t-15 -77t-43 -63.5t-63.5 -43t-76.5 -15.5q-80 0 -140 60q-29 29 -43 64.5t-16 74.5z" />
<glyph unicode="@" horiz-adv-x="1835" d="M139 498q0 184 66.5 357t185.5 307t282 215t355 81q150 0 272.5 -52t209.5 -144.5t134.5 -217t47.5 -268.5q0 -129 -40 -245.5t-103.5 -204.5t-143.5 -139.5t-160 -51.5q-27 0 -55.5 7.5t-53 25.5t-43 49t-24.5 78q-45 -66 -110.5 -111t-145.5 -45q-53 0 -103.5 22.5 t-89 67.5t-63.5 114t-25 161q0 121 41 226.5t106.5 184t146.5 123.5t163 45q57 0 95 -17t61.5 -41t37 -49.5t19.5 -41.5l21 94h155l-78 -356q-6 -25 -16 -74l-20 -101l-18.5 -99.5t-8.5 -67.5q0 -6 1 -15.5t5 -19.5t14.5 -17.5t28.5 -7.5q37 0 85 39t90 107.5t71 162 t29 201.5q0 123 -41 225.5t-114 176t-169 114.5t-207 41q-156 0 -284 -69.5t-218 -182.5q-49 -61 -88 -133.5t-64.5 -150.5t-38.5 -157t-13 -152q0 -143 48 -258t134 -196t205.5 -125t263.5 -44q145 0 269 41t222 106q59 41 96 75l58 56l74 -94q-80 -86 -170 -144 t-184.5 -94t-192.5 -52.5t-195 -16.5q-188 0 -338.5 55.5t-256 154.5t-162 237.5t-56.5 304.5zM729 442q0 -12 2 -39.5t13.5 -57.5t36 -52.5t71.5 -22.5q35 0 85 30t97 120q23 41 42.5 95t33.5 110.5t22 108.5q6 41 5 72v17q-4 76 -42 113t-85 37q-41 0 -78 -27.5t-69 -72 t-56.5 -101.5t-41.5 -115.5t-26.5 -115t-9.5 -99.5z" />
<glyph unicode="A" horiz-adv-x="1492" d="M0 0v59h147l31 66l22 48l18 45l22 58l446 1190h107l450 -1194l86 -213h158v-59h-830v59h201l-67 211l-62 181h-344l-63 -175l-21 -55q-8 -23 -15 -46l-15 -50l-17 -66h195v-59h-449zM410 518h297l-144 408z" />
<glyph unicode="B" horiz-adv-x="1492" d="M39 0v59h174l4 177v944l-4 206h-174v60h852q45 -2 97 -5t103.5 -15.5t98.5 -36t84 -62.5q31 -35 50 -84t19 -108q0 -68 -25.5 -126.5t-66.5 -99.5q-59 -57 -133 -78.5t-141 -31.5q43 -6 89 -15.5t92 -25t89 -40t82 -63.5q49 -51 78 -117.5t29 -148.5q0 -45 -11.5 -92 t-33.5 -90q-39 -72 -94.5 -112t-119 -60.5t-129 -26.5t-122.5 -8h-887zM637 231l4 -163q47 2 107.5 9t112.5 40t88 101.5t36 195.5q0 131 -35 201.5t-87 103.5t-113 37q-41 3 -78 2h-35v-527zM637 827q59 0 108.5 9.5t85 38t55 84t19.5 147.5q0 100 -20.5 155.5t-55 82 t-84 31.5t-104.5 5l-4 -202v-351z" />
<glyph unicode="C" horiz-adv-x="1536" d="M88 721q0 184 62.5 326.5t170 238.5t252 146.5t310.5 50.5q78 0 148.5 -10.5t137 -27t130.5 -37.5l133 -46v-399h-78q-4 31 -11.5 66.5t-20.5 74.5t-35.5 80t-59.5 84q-70 80 -142.5 107.5t-126.5 27.5q-82 0 -161.5 -44t-132.5 -122q-37 -53 -57.5 -118.5t-31 -133 t-12.5 -133.5t-2 -119q0 -164 19.5 -294t81.5 -226q16 -29 40.5 -56.5t56.5 -51t73.5 -38t93.5 -14.5q20 0 52 4t70.5 19.5t82 43t86.5 75.5q47 49 75.5 96t44 88t22.5 73.5t11 57.5h72v-420q-139 -49 -274.5 -87t-305.5 -38q-195 0 -340 61.5t-241.5 165t-144.5 240.5 t-48 289z" />
<glyph unicode="D" horiz-adv-x="1748" d="M39 0v59h178l4 170v957l-4 200h-178v60h864q74 -4 148.5 -9t147.5 -23.5t141.5 -54.5t129.5 -99q100 -102 140.5 -237.5t40.5 -279.5q0 -72 -10.5 -151.5t-36.5 -165.5q-47 -145 -121 -227t-161 -124t-179 -55.5t-174 -19.5h-930zM635 225l4 -157q13 0 26 -1 q121 0 214 18q102 19 169.5 88t101.5 198t34 348q0 41 -2 96t-8 125q-16 147 -59.5 234.5t-112 132.5t-160.5 58t-203 13l-4 -192v-961z" />
<glyph unicode="E" horiz-adv-x="1449" d="M39 0v61h174l4 175v966l-4 184h-174v60h1294v-457h-65q-10 43 -23.5 87t-35 87t-54.5 81t-82 69q-90 53 -207 61q-93 7 -184 7q-23 0 -45 -1l-4 -180v-438q53 4 105.5 14t103.5 64q27 27 42 54.5t22 55t9 55.5l5 56h67v-666h-67q-4 57 -13.5 114.5t-62.5 111.5 q-51 53 -104.5 63t-106.5 14v-465l4 -163q86 0 162 1t144.5 13t129 39t113.5 76q41 37 66.5 75.5t39 76.5t20.5 74t11 67h68v-492h-1352z" />
<glyph unicode="F" horiz-adv-x="1323" d="M39 0v59h174l4 164v987l-4 176h-174v60h1245v-457h-65q-10 53 -27.5 107.5t-58.5 107.5q-47 63 -108.5 98t-128.5 51.5t-133.5 19.5t-125.5 3l-4 -166v-450q43 2 90 10t92 43q33 27 52.5 58.5t29.5 64.5t13 65.5t5 59.5h66v-666h-66q-4 57 -14 113.5t-59 107.5 q-49 53 -103.5 64.5t-105.5 15.5v-473l4 -164h172v-59h-770z" />
<glyph unicode="G" horiz-adv-x="1705" d="M88 725q0 207 76 352.5t195.5 236.5t265 132t286.5 41q160 0 298.5 -35t242.5 -70v-376h-68q-6 45 -25.5 107.5t-84.5 139.5q-66 76 -145.5 115t-155.5 39q-31 0 -70 -8t-82 -30.5t-85 -60.5t-79 -100q-35 -57 -56 -120.5t-31.5 -127t-13.5 -125t-3 -116.5 q0 -223 45 -386t158 -239q35 -25 80 -39t92 -14q35 0 68.5 8t62.5 29q25 16 39 35.5t21 50.5t9 78l5 118v160l-5 142h-182v77h758v-77h-172v-535l-126 -54q-71 -30 -154 -54.5t-180 -41t-208 -16.5q-203 0 -349 65.5t-241.5 172t-140.5 244t-45 282.5z" />
<glyph unicode="H" horiz-adv-x="1748" d="M35 0v59h174l4 160v993l-4 174h-174v60h778v-60h-170l-4 -174v-436h469v432l-4 178h-178v60h786v-60h-178l-4 -174v-995l4 -158h178v-59h-786v59h178l4 154v500h-469v-494l4 -160h170v-59h-778z" />
<glyph unicode="I" horiz-adv-x="854" d="M41 0v59h170l4 183v946l-4 198h-170v60h768v-60h-174l-4 -198v-946l4 -183h174v-59h-768z" />
<glyph unicode="J" horiz-adv-x="1110" d="M49 254q0 92 50.5 137t121.5 45q41 0 73 -14t52.5 -37t30.5 -50.5t10 -55.5q0 -49 -21.5 -78t-35.5 -41q-18 -16 -26.5 -26.5t-8.5 -31.5q0 -37 30.5 -49t57.5 -12q59 0 91 26.5t47.5 65.5t17.5 85t2 83v913l-4 172h-175v60h773v-60h-172l-5 -172v-706v-83 q0 -36 -1 -63.5t-3 -50.5l-4 -43q-6 -45 -23.5 -97t-65.5 -97t-136 -76t-233 -31q-80 0 -137.5 8.5t-95.5 20.5t-59.5 24.5t-33.5 20.5q-43 29 -66.5 61.5t-35 62.5t-13.5 53.5t-2 35.5z" />
<glyph unicode="K" horiz-adv-x="1622" d="M41 0v59h172l4 150v1003l-4 174h-172v60h772v-60h-174l-4 -174v-405h59l385 459l97 120h-215v60h505v-60h-184l-108 -120l-170 -205l411 -864l80 -138h121v-59h-719v59h107l-54 138l-256 540h-59v-528l4 -150h174v-59h-772z" />
<glyph unicode="L" horiz-adv-x="1449" d="M43 0v61h170l4 170v975l-4 180h-170v60h770v-60h-174l-4 -176v-981l4 -157q80 0 153.5 3t141 17t128 44t116.5 83q43 41 68.5 80t38.5 76t19.5 70.5t10.5 64.5h69v-510h-1341z" />
<glyph unicode="M" horiz-adv-x="2004" d="M43 0v59h170l4 150v991l-4 186h-170v60h649l344 -879l357 879h610v-60h-172l-4 -186v-995l4 -146h172v-59h-770v59h170l4 148v1083l-541 -1331h-45l-520 1339v-1089l4 -150h170v-59h-432z" />
<glyph unicode="N" horiz-adv-x="1622" d="M33 0v59h180l4 170v957l-4 200h-180v60h696l625 -854v622l-4 172h-170v60h430v-60h-174l-4 -174v-1259h-127l-1010 1366v-1090l4 -170h164v-59h-430z" />
<glyph unicode="O" horiz-adv-x="1748" d="M90 713q0 172 57.5 313t159 241.5t242.5 157t309 60.5h13q169 0 311 -51q147 -53 253.5 -152.5t166 -239t59.5 -305.5q0 -160 -53.5 -300t-154.5 -246.5t-248.5 -168t-338.5 -61.5q-170 0 -313 53.5t-245.5 151.5t-160 236.5t-57.5 310.5zM557 709q0 -43 1 -87t3 -90 q4 -59 10.5 -120.5t20.5 -120.5q6 -23 19.5 -66t44 -86t83 -74.5t136 -31.5t137 32.5t85 76.5t45.5 87l19 62q12 51 18.5 122.5t9.5 140.5t4 121t1 62q0 68 -3 137.5t-10 135t-18.5 123t-27.5 98.5q-6 14 -21.5 46t-46.5 62.5t-79 52.5q-44 20 -106 19h-12 q-100 -4 -158.5 -59.5t-89 -129t-41 -148.5t-14.5 -120t-7 -107t-3 -138z" />
<glyph unicode="P" horiz-adv-x="1409" d="M41 0v59h172l4 168v975l-4 184h-172v60h741q33 1 67 1q51 0 104 -2q89 -3 172 -24.5t153 -68.5t111 -133q18 -37 26 -79t8 -83t-6 -80t-22 -78q-35 -86 -90.5 -134t-119 -72.5t-130 -31t-121.5 -8.5h-299v-430l4 -164h174v-59h-772zM635 725q74 0 134 9t104.5 43t68 99.5 t23.5 176.5q0 113 -26 178t-70 98t-103 40q-46 6 -97 6q-15 0 -30 -1l-4 -176v-473z" />
<glyph unicode="Q" horiz-adv-x="1748" d="M88 715q0 170 57.5 310t162 241.5t249.5 158t320 56.5q172 0 316 -55.5t247.5 -156t161 -237.5t57.5 -303q0 -133 -34 -240.5t-91 -192.5t-130 -147.5t-149 -101.5q-68 -35 -131 -53.5t-120.5 -25.5t-107.5 -7h-89q98 -16 156.5 -31.5t94.5 -40t56.5 -61.5t42.5 -92 q12 -33 28.5 -52.5t41 -30.5t62.5 -14.5t93 -3.5v-71h-252q-45 0 -84.5 1t-78.5 11q-49 12 -81 34.5t-52.5 54.5t-33.5 72l-28 85q-12 43 -25.5 69.5t-33 44t-48 31t-71.5 29.5l-73 32q-36 15 -70 33q-98 55 -167 129t-113 160t-63.5 179.5t-19.5 185.5zM557 653 q0 -94 7 -202.5t38 -201.5t93.5 -154.5t172.5 -61.5q86 0 140.5 33.5t86 78.5t45.5 92l19 68q12 53 18.5 122t9.5 132.5t4 111.5t1 60q0 20 -1 71.5t-5 116t-12.5 131t-22.5 119.5q-6 23 -21.5 63t-46 80t-82.5 68q-48 27 -117 27h-10q-115 -2 -178 -70.5t-94 -177t-38 -242 t-7 -264.5z" />
<glyph unicode="R" horiz-adv-x="1579" d="M41 0v59h172l4 160v991l-4 176h-172v60h858q72 -4 144.5 -11.5t138.5 -37.5q158 -78 157 -264q0 -96 -32.5 -153.5t-61.5 -86.5q-63 -66 -136 -92.5t-128 -40.5q68 -10 132.5 -23.5t117.5 -44.5q51 -29 83 -64.5t48 -81.5t22.5 -104.5t8.5 -132.5q2 -70 9 -118 t25.5 -76.5t53.5 -42t90 -13.5v-59h-264q-90 0 -152.5 11.5t-102.5 49t-59.5 107.5t-25.5 184l-8 110q-3 46 -9 79.5t-18 60.5t-33 51q-23 27 -45.5 41.5t-53 21.5t-70.5 8t-95 1v-502l4 -164h172v-59h-770zM635 793q68 0 119 8t84.5 38.5t51 92t17.5 166.5q0 109 -18.5 167 t-52 84.5t-83.5 30.5q-33 3 -73 3q-20 0 -41 -1l-4 -172v-417z" />
<glyph unicode="S" horiz-adv-x="1236" d="M109 498h73l11.5 -59.5t14.5 -56.5t22.5 -57.5t35.5 -64.5q14 -23 43 -58.5t75 -70.5t110.5 -60.5t150.5 -25.5q72 0 122 19.5t83 49t47 64.5t14 68q0 55 -30.5 97t-75.5 74t-98 55l-99 42q-86 35 -172 75t-153.5 96t-110.5 136t-43 193q0 88 28.5 173t91 152.5 t159 108.5t231.5 41q72 0 132 -9.5t110.5 -24.5t92.5 -34l77 -34l24 -347h-78q-4 27 -11 57.5t-22.5 65.5t-43 73t-72.5 75q-66 53 -131.5 74.5t-120.5 21.5q-90 0 -154.5 -45t-64.5 -123q0 -45 23.5 -81t65.5 -67.5t100.5 -60.5t129.5 -59l94 -41l93 -43q29 -14 78 -43 t96 -78t80.5 -121t33.5 -172q0 -94 -34.5 -185t-107.5 -164t-183.5 -117t-261.5 -44q-143 0 -255 37t-208 78z" />
<glyph unicode="T" horiz-adv-x="1536" d="M51 944v502h1419v-502h-71q-4 61 -14.5 120.5t-51.5 125.5q-39 61 -85 97t-93 54.5t-94 24.5t-88 8l-4 -192v-961l4 -162h174v-59h-770v59h172l4 162v959l-4 194q-66 -4 -134.5 -16t-138.5 -70q-51 -41 -80.5 -85t-45 -90t-20.5 -89t-7 -80h-72z" />
<glyph unicode="U" horiz-adv-x="1579" d="M27 1386v60h768v-60h-172l-5 -186v-665q2 -113 7.5 -183.5t25.5 -122.5q20 -49 52 -82.5t71 -53t82 -28t84 -8.5q74 0 148.5 23.5t119.5 68.5q35 33 54.5 74t28.5 88t12.5 99.5t3.5 105.5v682l-4 188h-164v60h420v-60h-168l-5 -186v-741q-2 -47 -5 -97.5t-17 -100.5 t-41 -98t-76 -89q-47 -41 -108.5 -63.5t-123 -33t-117.5 -13.5t-93 -3q-90 0 -177 7t-171 36q-90 29 -139.5 76t-74 101.5t-31.5 111.5t-9 108v801l-4 184h-172z" />
<glyph unicode="V" horiz-adv-x="1449" d="M0 1386v60h842v-60h-205l47 -157l227 -656l254 687l41 126h-196v60h440v-60h-154l-51 -129l-485 -1308h-78l-451 1286l-59 151h-172z" />
<glyph unicode="W" horiz-adv-x="2174" d="M4 1386v60h754v-60h-176l45 -149l207 -625l229 774h-168v60h743v-60h-161l231 -774l190 598l48 176h-189v60h414v-60h-137l-64 -176l-403 -1259h-82l-393 1286l-387 -1286h-84l-428 1286l-58 149h-131z" />
<glyph unicode="X" horiz-adv-x="1579" d="M2 1386v60h776v-60h-141l51 -94l170 -295l189 279l67 110h-190v60h475v-60h-176l-82 -112l-242 -348l426 -725l92 -142h158v-59h-801v59h150l-56 111l-223 385l-268 -395l-62 -101h193v-59h-471v59h172l76 97l321 471l-385 649l-78 110h-141z" />
<glyph unicode="Y" horiz-adv-x="1449" d="M2 1386v60h813v-60h-192l73 -131l222 -350l204 363l60 118h-197v60h459v-60h-160l-70 -112l-280 -492v-723h176v-59h-770v59h174v723l-301 475l-98 129h-113z" />
<glyph unicode="Z" d="M2 0l813 1380q-102 0 -202.5 -9t-202.5 -60q-78 -39 -122 -88t-65.5 -96.5t-27 -88.5t-5.5 -61h-65v469h1200l-809 -1378q82 0 158 1t144.5 12t130 35.5t114.5 69.5q49 43 77.5 87t44 86t19.5 78t6 61h68v-498h-1276z" />
<glyph unicode="[" horiz-adv-x="854" d="M213 -510v1956h596v-82h-234v-1792h234v-82h-596z" />
<glyph unicode="\" horiz-adv-x="854" d="M25 1446h245l559 -1446h-245z" />
<glyph unicode="]" horiz-adv-x="854" d="M43 -428h233v1792h-233v82h596v-1956h-596v82z" />
<glyph unicode="^" horiz-adv-x="1492" d="M262 664l400 782h186l383 -782h-242l-237 501l-250 -501h-240z" />
<glyph unicode="_" horiz-adv-x="1024" d="M-20 -154h1064v-102h-1064v102z" />
<glyph unicode="`" horiz-adv-x="598" d="M66 1413q0 23 17 28t48 5h205h11q48 0 66 -16q19 -18 36 -68l83 -289h-67l-371 291q-10 10 -19 21.5t-9 27.5z" />
<glyph unicode="a" horiz-adv-x="1236" d="M66 285q0 27 8 81t49 105q25 31 56.5 51.5t75.5 35.5t102 28l137 28l213 43q-2 41 -2 79t-5 77q0 16 -3 40t-15 46.5t-35.5 38.5t-66.5 16q-41 0 -64.5 -16t-36 -38.5t-15.5 -47.5l-5 -41q-2 -20 -7.5 -46t-20.5 -47.5t-47 -36.5t-87 -15q-84 0 -113.5 29.5t-29.5 74.5 q0 29 14 68t37 67q33 43 85 66.5t110.5 35t120 13.5t114.5 2q33 0 88 -2t113.5 -16.5t113 -46t86.5 -89.5q29 -53 33 -122.5t4 -137.5v-338q0 -47 1 -84t9.5 -64.5t28 -41.5t55.5 -14q12 0 24.5 1t25.5 3v-60q-113 -16 -176.5 -20t-92.5 -4q-104 0 -154.5 29.5t-74.5 113.5 q-14 -23 -34.5 -48.5t-55.5 -48t-87.5 -37.5t-127.5 -15q-172 0 -260 75.5t-88 229.5zM449 283q0 -27 4 -61t15 -63.5t32.5 -50t58.5 -20.5q33 0 65.5 21.5t53.5 62.5q12 25 18 58.5t9.5 71.5t4.5 75t1 65v76q0 37 -2 74q-57 -16 -96.5 -29.5t-66 -30t-44 -37t-29.5 -51.5 q-16 -41 -20 -86.5t-4 -74.5z" />
<glyph unicode="b" d="M16 1386v60h203q59 0 97 1t71 3t67.5 3t86.5 5l-4 -235v-353q18 27 38.5 51.5t61.5 47.5q47 27 105.5 39t109.5 12q72 0 147.5 -25.5t138 -84t102.5 -153.5t40 -235q0 -127 -33 -227t-93 -171t-144 -107.5t-187 -36.5q-76 0 -126 15t-81.5 38.5t-50.5 49.5l-30 44 l-5 -127h-376l4 154v1071l-4 161h-138zM543 485q0 -72 3 -143.5t18.5 -128.5t48 -93t92.5 -36q57 0 82.5 30.5t35.5 57.5q14 35 21.5 88t11.5 105.5t5 93.5t1 51q0 127 -11 205t-32.5 121t-50.5 56t-63 13q-10 0 -29 -3t-39.5 -15t-41 -37t-32.5 -66q-6 -25 -10 -63.5 t-6 -82.5t-3 -85t-1 -68z" />
<glyph unicode="c" horiz-adv-x="1110" d="M86 489q0 141 46 235.5t99 147.5q55 55 118 85t121 44.5t107.5 17.5t75.5 3q88 0 167 -16.5t137.5 -47t92 -77.5t33.5 -109q0 -72 -46 -114t-111 -42q-25 0 -52.5 8.5t-50 27t-37 48t-14.5 72.5l4 59q0 59 -30.5 87t-67.5 28q-59 0 -93 -41t-51.5 -103.5t-22.5 -136 t-5 -137t4 -143.5t26.5 -151.5t69.5 -121t133 -49.5q35 0 70 11.5t63 31.5q63 41 96 102.5t60 123.5l68 -25q-25 -55 -55.5 -114.5t-82 -108.5t-130 -82t-199.5 -33q-100 0 -197.5 29t-174.5 91.5t-124 161.5t-47 238z" />
<glyph unicode="d" d="M86 516q0 119 33 212t90 157.5t134 98.5t167 34q74 0 128 -16.5t91 -40t59.5 -49t36.5 -44.5v375l-4 143h-137v60h199h87q36 0 69.5 1t72.5 2t94 5l-4 -172v-1081l4 -142h133v-59h-505l-9 127l-30 -44q-18 -26 -51 -49.5t-83.5 -38.5t-123.5 -15q-92 0 -174 33.5 t-143.5 101t-97.5 168t-36 233.5zM502 514q0 -41 2 -82l4 -82q2 -49 9 -96t22.5 -85t43 -61.5t74.5 -23.5q59 0 92 34t48.5 90t17.5 130t2 151v17q0 70 -2 148.5t-16 125.5q-12 45 -34 71t-44.5 37t-40.5 13t-27 2q-74 -4 -112.5 -94t-38.5 -295z" />
<glyph unicode="e" horiz-adv-x="1236" d="M82 495.5q0 96.5 31.5 190.5t99.5 169t174.5 121t255.5 46q37 0 85 -4t100.5 -18.5t106.5 -41t101 -71.5q45 -43 69.5 -86t38 -87t17.5 -87t6 -84h-659q0 -74 3 -144.5t19 -136.5q4 -14 15.5 -48t38 -67.5t70.5 -59.5t114 -26q68 0 120 27t91 64.5t65 79.5l46 73l61 -31 l-61.5 -102t-92 -101t-141.5 -77t-209 -31q-156 0 -263.5 47t-175 123t-97 171t-29.5 191.5zM508 610h231l2 82q0 21 -1 42q-1 65 -17 122q-10 35 -24.5 54.5t-28 27.5t-24.5 9t-17 1t-18.5 -2t-27 -11t-28.5 -28.5t-25 -52.5q-16 -55 -19 -120t-3 -124z" />
<glyph unicode="f" horiz-adv-x="768" d="M35 0v59h137l4 140v729h-141v59h141v139q2 59 14.5 124t65.5 120q39 39 91 60.5t106.5 30.5t101.5 11.5t74 2.5q49 0 115.5 -4.5t128 -28t103.5 -70.5t42 -133q0 -82 -48 -122t-108 -40q-68 0 -108.5 45t-40.5 111q0 29 6 57q4 12 6 24.5t2 26.5q0 41 -25.5 54.5 t-48.5 13.5q-35 0 -54 -15.5t-27.5 -42t-9.5 -59t-1 -65.5v-240h141v-59h-141v-731l4 -138h137v-59h-667z" />
<glyph unicode="g" horiz-adv-x="1323" d="M45 -238q0 51 25.5 84t61.5 52.5t75 29t67 15.5q-20 6 -52 19t-62.5 41t-52 73t-21.5 114q0 68 19.5 114t49 78t65.5 53.5t71 37.5l-27 28q-16 17 -31.5 44.5t-26.5 66.5t-11 88q0 78 28.5 135.5t69.5 92.5q16 14 42.5 29.5t66.5 29.5t96.5 23.5t130.5 9.5q49 0 91 -3 t83 -13q78 -16 114.5 -41t67.5 -54q33 37 77 74t115.5 37t112.5 -45t41 -110.5t-37 -99.5t-86 -34q-16 0 -34.5 5t-34 16.5t-25.5 29t-10 43.5l2 43q0 10 -3 23.5t-26 13.5q-16 0 -29.5 -12t-23.5 -27q18 -37 31.5 -71.5t13.5 -94.5q0 -72 -29.5 -135t-85.5 -106 q-39 -29 -85 -45.5t-90 -24.5t-85 -10t-71 -2q-47 0 -81 3t-62.5 9t-56.5 16.5t-65 26.5l-35.5 -14t-36 -19.5t-28.5 -28t-12 -38.5q0 -33 19.5 -50.5t50 -25.5t70.5 -10t81 -2h190l147 -4q71 -2 132 -12.5t112.5 -30t86.5 -54.5q33 -33 54 -87t21 -113q0 -98 -53 -179 t-141 -133q-74 -41 -179.5 -64.5t-250.5 -23.5q-31 0 -77 2t-99.5 6.5t-107.5 13.5t-101 25q-14 4 -40 14.5t-51.5 31t-45 51t-19.5 75.5zM266 -229q0 -27 10.5 -49.5t26.5 -38.5q10 -12 27.5 -24.5t49.5 -23t85 -17.5t133 -7q12 0 45 1t75 4t86 11t77 21q41 18 70.5 48 t29.5 75q0 53 -35 77.5t-88 34.5q-63 10 -142 15.5t-153 5.5q-47 0 -99 -2t-96 -14.5t-73 -40t-29 -76.5zM543 715q0 -129 13 -199t76.5 -70t76 76t12.5 219q0 37 -1 76t-10.5 71t-27.5 52.5t-51 20.5q-35 0 -49.5 -20.5t-18.5 -33.5q-14 -35 -17 -87t-3 -105z" />
<glyph unicode="h" horiz-adv-x="1409" d="M35 0v59h133l4 140v1046l-4 141h-133v60h196q51 0 88 1t73 3t74 5l93 7l-4 -164v-464q14 25 38.5 56.5t63.5 60t96.5 49t139.5 20.5q72 0 147.5 -18.5t120.5 -61.5q31 -29 46.5 -64.5t23.5 -73.5t9 -76t1 -69v-464l4 -134h139v-59h-645v59h117l4 134v368v64q0 39 -2 78.5 l-4 75.5t-8 57q-2 8 -7 22t-15.5 27.5t-29 24t-44.5 10.5q-41 0 -81 -31t-65 -82q-31 -61 -37 -139t-8 -146v-327l4 -136h111v-59h-639z" />
<glyph unicode="i" horiz-adv-x="724" d="M35 0v59h137l4 127v594l-4 148h-137v59h215q55 0 90 1t65.5 2t65.5 2t90 5l-4 -157v-652l4 -129h139v-59h-665zM174 1300q0 39 15.5 74t41 60.5t60.5 41t76 15.5q39 0 73.5 -15.5t60 -41t41 -60.5t15.5 -74q0 -41 -15.5 -75.5t-41 -60t-60 -41t-73.5 -15.5q-78 0 -138 55 q-55 59 -55 137z" />
<glyph unicode="j" horiz-adv-x="681" d="M-53 -375q61 2 100 19.5t62.5 59.5t33 116t11.5 188v778l-4 142h-142v59h211q47 0 83 1l71 2l72 2q38 1 90 3l-5 -227v-719q0 -37 -1 -79t-9 -84t-23.5 -84t-45.5 -81q-43 -55 -98.5 -84.5t-120 -45t-137 -19.5t-148.5 -6v59zM156 1296q0 39 15 74t41 61.5t60.5 42 t75.5 15.5q39 0 74 -15.5t60.5 -41t41 -61.5t15.5 -75t-15.5 -73.5t-41 -61t-60.5 -42t-74 -15.5t-73.5 15.5t-63.5 41.5q-27 27 -41 62.5t-14 72.5z" />
<glyph unicode="k" horiz-adv-x="1323" d="M35 0v59h137l4 127v1074l-4 126h-137v60h201q51 0 87 1l69 2q34 1 73 4l94 7l-4 -166v-751h72l194 309l45 78h-170v59h432v-59h-159l-58 -78l-57 -92l342 -576l80 -125h80v-59h-619v59h80l-67 127l-162 287h-33v-285l4 -129h111v-59h-635z" />
<glyph unicode="l" horiz-adv-x="724" d="M33 0v59h135l4 140v1056l-4 131h-135v60h198q53 0 90 1t72 3l73 4q38 2 93 6l-4 -147v-1114l4 -140h137v-59h-663z" />
<glyph unicode="m" horiz-adv-x="2134" d="M31 0v59h137l4 150v524l-4 195h-137v63h219q49 0 83 1t63.5 2t64.5 3t88 7l2 -154q18 29 42.5 60.5t64.5 57t100.5 43t150.5 17.5q133 0 211 -43q63 -35 87 -81t36 -85q18 33 43 70t67 67.5t105.5 50t161.5 19.5t169 -25.5t112 -66.5q27 -29 42 -63.5t22 -70.5t7 -72v-69 v-452l4 -148h140v-59h-656v59h121l4 148v450v51q0 30 -2 58.5t-6 55t-10 40.5q-16 35 -43 49.5t-60 14.5q-47 0 -84 -23.5t-61 -64.5q-35 -55 -42 -120t-11 -128v-385l4 -146h125v-59h-641v59h120l5 148v450q-2 51 -3.5 82t-1.5 48.5t-1 25.5t-3 16q-25 98 -114 99 q-35 0 -75 -21.5t-71 -68.5q-35 -55 -42 -120t-9 -128v-381l4 -150h125v-59h-657z" />
<glyph unicode="n" horiz-adv-x="1409" d="M37 0v59h133l4 121v608l-4 140h-133v61h203h96q39 0 71.5 2t66.5 5l81 8l4 -170q20 33 47 66.5t66 60t95 43t138 16.5q59 0 130 -15.5t118 -52.5q37 -29 55.5 -65.5t27.5 -76.5t10 -79t1 -74v-477l4 -121h138v-59h-646v59h117l4 123v463q0 47 -1 79t-3 53.5t-5 35.5 t-7 29q-10 29 -23.5 45t-28 23.5t-26.5 8.5t-16 1q-51 0 -103 -50q-31 -29 -48 -64.5t-26.5 -73.5t-12.5 -77t-5 -75v-402l4 -119h117v-59h-643z" />
<glyph unicode="o" horiz-adv-x="1323" d="M80 498q0 137 48 236.5t128 163t186.5 94t223.5 30.5q147 0 268 -45q100 -39 159.5 -100.5t92.5 -127t43 -130t10 -109.5q0 -113 -38 -211t-111.5 -172t-181 -116t-249.5 -42q-111 0 -215 30t-185 94.5t-130 165t-49 239.5zM502 485q0 -88 4 -166.5t14 -140.5 q4 -25 12.5 -50.5t23.5 -45t37.5 -32.5t57.5 -13q16 0 37 4t39 18.5t35.5 42t28.5 76.5q6 29 11 74t8 93t4 92t1 73v46q0 40 -3 93t-9 108.5t-19 92.5q-4 8 -11 26.5t-20.5 35t-36 29.5t-54.5 13q-35 0 -57.5 -13t-37 -30.5t-22.5 -36t-10 -26.5q-25 -78 -29 -174.5 t-4 -188.5z" />
<glyph unicode="p" d="M23 -383h133l4 131v1032l-4 148h-133v61h135q63 0 107 1t84 3t84 5l106 8v-138q12 20 31.5 45t51 46.5t81 37t120.5 15.5q109 0 194 -40t143.5 -112t89 -170t30.5 -215q0 -92 -21.5 -180t-74.5 -162q-49 -66 -132 -114t-198 -48q-82 0 -157.5 27t-129.5 88q-16 16 -28 35 v-373l4 -131h137v-63h-657v63zM545 385q0 -23 1 -38t1 -30q2 -47 11 -89t28.5 -74.5t49.5 -51t75 -18.5q53 0 76.5 28.5t37.5 63.5q14 37 21.5 89t10.5 103.5t4 88.5t1 43q0 131 -13 211t-34.5 123t-50.5 57t-62 14q-37 0 -61.5 -14t-39.5 -32.5t-23.5 -37t-10.5 -26.5 q-8 -27 -13 -62t-7 -71.5t-2 -72.5v-67v-82v-55z" />
<glyph unicode="q" horiz-adv-x="1323" d="M84 465q0 150 40 254t104.5 168.5t146.5 94.5t166 30q57 0 101 -11.5t76 -27t51 -32.5t29.5 -29.5t17.5 -25.5l13 -26v127h114h82q38 0 79 1t102 1v-1247l4 -125h131v-63h-657v63h133l4 125v377q-14 -18 -37.5 -43t-60.5 -48.5t-90 -40t-127 -16.5t-148.5 27t-136 86 t-99.5 153.5t-38 227.5zM502 477q0 -115 10 -190.5t29.5 -120.5t48.5 -62.5t67.5 -17.5t71.5 20.5t51.5 54.5t27.5 84t10 120.5t1 166.5q0 80 -5 150t-21 119q-14 39 -35 61.5t-40.5 31.5t-35.5 11t-23 2q-33 0 -54 -12t-35.5 -28.5t-21.5 -33t-9 -24.5q-10 -29 -17.5 -71 t-11.5 -89t-6 -92t-2 -80z" />
<glyph unicode="r" horiz-adv-x="1024" d="M37 0v59h135l4 134v544l-4 193h-135v59h137q68 2 112 3t83 2l80 2q41 1 102 3v-202q10 27 28.5 65.5t50.5 75.5t79 62.5t114 25.5q37 0 74 -11t66.5 -36t49 -63.5t19.5 -94.5q0 -78 -43 -128t-115 -50q-70 0 -110.5 43t-40.5 96q0 27 6 45.5t6 44.5q0 16 -6 28.5 t-22.5 12.5t-30.5 -14t-27 -37q-61 -102 -73.5 -202.5t-14.5 -186.5v-283l4 -131h150v-59h-678z" />
<glyph unicode="s" horiz-adv-x="980" d="M102 684q0 154 102.5 243t289.5 89q92 0 168.5 -18.5t162.5 -43.5v-260h-73q-4 29 -18.5 75t-61.5 95q-29 31 -81 57.5t-120 26.5q-39 0 -64.5 -9t-41 -22.5t-22.5 -29t-7 -27.5q0 -35 25.5 -52t44.5 -28q12 -6 23 -10l28 -10l43 -17l71 -26q66 -25 127.5 -52.5 t108.5 -67.5t74.5 -99.5t27.5 -149.5q0 -27 -5 -64.5t-21 -80.5q-47 -119 -157 -177.5t-263 -58.5q-111 0 -195 22.5t-162 51.5v328h70q10 -63 26.5 -121t69.5 -115q41 -43 95.5 -67.5t126.5 -24.5q86 0 135 37t49 88q0 27 -11.5 45t-28.5 31.5t-36.5 21.5l-36.5 15l-141 51 l-66 24q-33 12 -63 27q-20 10 -53 29.5t-64 54.5t-53.5 88t-22.5 131z" />
<glyph unicode="t" horiz-adv-x="811" d="M47 930v59h139v285h385v-285h205v-59h-205v-572q0 -78 2 -132t9.5 -87t24 -47t46.5 -14q29 0 59.5 17.5l65.5 39.5l39 -53l-58.5 -37.5t-71.5 -36t-88 -28t-107 -11.5q-66 0 -128.5 18.5t-99.5 57.5q-29 29 -44 68t-23.5 82t-9.5 86t-1 79v570h-139z" />
<glyph unicode="u" horiz-adv-x="1409" d="M35 930v59h133q70 0 115 1t85 3t84 4t111 7l-4 -230v-387q0 -72 1 -113t2 -62.5t2 -32.5t3 -23.5t6.5 -26.5t14.5 -27.5t28.5 -22.5t47.5 -9q31 0 69.5 17t69.5 65q35 53 41 119.5t8 164.5v338l-4 156h-137v59h137q70 0 114 1t83.5 3t85 4t112.5 7l-6 -226v-573l4 -146 h145v-59h-516l-4 158q-20 -37 -52 -80t-103 -74q-45 -18 -99.5 -27.5t-101.5 -9.5q-66 0 -141.5 18.5t-122.5 65.5q-29 27 -43.5 56.5t-21.5 69.5t-8 93.5t-1 126.5v371l-4 162h-133z" />
<glyph unicode="v" horiz-adv-x="1150" d="M2 930v59h694v-59h-137l35 -94l69 -164l80 -209l150 364l37 103h-123v59h344v-59h-131l-53 -105l-353 -848h-67l-371 854l-49 99h-125z" />
<glyph unicode="w" horiz-adv-x="1705" d="M2 930v59h657v-59h-108l33 -94l108 -289l135 383h-106v59h594v-59h-119l139 -383l111 295l27 88h-91v59h324v-59h-143l-37 -90l-66 -174l-52 -140l-45 -122l-46 -120l-52 -138l-65 -171h-57l-291 799l-283 -799h-59l-322 852l-47 103h-139z" />
<glyph unicode="x" horiz-adv-x="1236" d="M0 930v59h700v-59h-120l53 -99l67 -120l99 120l73 99h-108v59h342v-59h-129l-84 -96l-150 -189l293 -491l60 -95h135v-59h-717v59h141l-47 93l-112 194l-158 -194l-72 -93h146v-59h-389v59h135l68 76l61 70l69 86l99 125l-254 413l-64 101h-137z" />
<glyph unicode="y" horiz-adv-x="1193" d="M0 930v59h713v-59h-146l49 -123l46 -100l34 -81l35 -87l43 -117l150 389l43 119h-142v59h365v-59h-133l-53 -119l-143 -362l-142 -361l-45 -105l-47 -106q-35 -74 -68 -134t-70.5 -103t-86 -68t-113.5 -25q-104 0 -172 60.5t-68 165.5q0 86 48 131t108 45q68 0 105.5 -44 t37.5 -104q0 -23 -4 -35t-9 -23t-9 -21.5t-4 -24.5q0 -2 1 -8t5 -13.5t13 -12.5t26 -5q47 0 78.5 44t70.5 114l70 137l-387 854l-62 123h-137z" />
<glyph unicode="z" horiz-adv-x="1067" d="M43 0l489 922q-70 0 -139 -11.5t-129 -72.5q-49 -53 -61.5 -106.5t-16.5 -94.5h-71v352h880l-489 -921q78 0 157.5 12t147.5 78q57 55 73.5 116.5t22.5 116.5h72v-391h-936z" />
<glyph unicode="{" horiz-adv-x="724" d="M-18 442v56q55 12 85.5 42.5t45 72.5t17.5 89.5t3 94.5v233q0 61 1 110.5t8.5 89.5t22.5 72.5t42 63.5q29 33 63.5 50.5t89 26.5t134 12t200.5 5v-55q-33 -8 -64.5 -18.5t-58.5 -28.5q-33 -25 -51 -52.5t-26.5 -63.5t-10.5 -80t-2 -101v-125q0 -70 -1 -119t-3 -84 t-6 -60.5t-12 -47.5q-14 -43 -35 -71t-45.5 -44t-48 -25.5t-43.5 -15.5l39 -14q23 -8 47 -24.5t46.5 -42.5t39.5 -64q16 -45 19 -96.5t5 -133.5v-221q0 -66 2 -107.5t15 -80.5q12 -41 31.5 -67t44 -42t54 -26.5t64.5 -18.5v-55q-117 2 -196.5 4t-136 12t-93.5 29.5t-67 54.5 q-49 57 -57.5 128t-8.5 153v233q0 49 -1 79t-2 50.5t-3 33.5l-4 28q-10 43 -27.5 71.5t-38 47t-41 28.5t-36.5 14z" />
<glyph unicode="|" horiz-adv-x="468" d="M129 -512v2048h211v-2048h-211z" />
<glyph unicode="}" horiz-adv-x="724" d="M-6 1405v55q121 -2 200.5 -5t134 -12t89.5 -26.5t63 -50.5q27 -31 42.5 -63.5t22.5 -72.5t8 -89t1 -111v-233q0 -47 3 -94.5t17.5 -89.5t45 -72.5t86.5 -42.5v-56q-16 -4 -37 -14t-41.5 -28.5t-38 -47t-27.5 -71.5q-4 -14 -5 -27.5t-2 -34t-2 -50.5t-1 -79v-233 q0 -82 -8 -153t-58 -128q-31 -35 -67.5 -54.5t-93 -29.5t-136 -12t-196.5 -4v55q33 8 63.5 18.5t55 26.5t44 42t31.5 67q12 39 14.5 80.5t2.5 107.5v221q2 82 5 133.5t19 96.5q14 39 38 64.5t48.5 41.5t47.5 25l38 14q-20 6 -43.5 15.5t-48 25.5t-45 44t-35.5 71 q-8 23 -12 48t-6 60t-3 84t-1 119v125q0 57 -2 101t-10.5 80t-26.5 63.5t-51 52.5q-27 18 -58.5 28.5t-64.5 18.5z" />
<glyph unicode="~" horiz-adv-x="1492" d="M231 604l35 47q23 31 59.5 60.5t87 52t115.5 22.5q57 0 105.5 -17t114.5 -48l69 -33q33 -14 72 -28.5t78 -14.5q63 0 112 40t88 87l95 -182q-18 -20 -47 -49t-67 -54.5t-85 -44t-102 -18.5q-53 0 -101.5 18.5t-109.5 46.5l-60 29q-43 20 -80 33.5t-78 13.5q-31 0 -54 -7 t-44.5 -23.5t-46.5 -43t-57 -65.5z" />
<glyph unicode="&#xa1;" horiz-adv-x="681" d="M102 1274q0 41 15.5 76.5t43 63.5t63.5 43.5t77 15.5q82 0 141 -60q29 -27 43.5 -63.5t14.5 -75.5q0 -41 -15.5 -77t-42 -63.5t-63.5 -43t-78 -15.5t-77 15.5t-63.5 43t-43 63.5t-15.5 77zM109 160q0 25 3 49t7 51l143 717h76l147 -719q4 -25 7.5 -49.5t3.5 -50.5 q0 -55 -16.5 -94t-44 -64t-62.5 -36t-72 -11q-53 0 -89 18.5t-59.5 47t-33.5 65.5t-10 76z" />
<glyph unicode="&#xa2;" horiz-adv-x="1150" d="M86 492q0 63 14.5 131.5t48 133t87 119t133.5 91.5q47 20 109.5 35.5t127.5 19.5v217h78v-217q49 0 116.5 -12.5t129 -40t104.5 -73.5t43 -118q0 -41 -14 -70.5t-38 -49t-52.5 -28.5t-55 -9t-54 8t-49 26.5t-35 48t-13.5 70.5l2 62q0 92 -84 112v-874q33 -6 55 -6 q61 0 108.5 27.5t82.5 69.5t57 89l39 84l66 -23q-29 -72 -58.5 -127t-70.5 -96q-37 -39 -81 -61.5t-84 -34.5t-71 -16.5t-43 -4.5v-235h-78v233q-29 2 -73 6.5t-96 18.5t-108.5 43t-105.5 80q-59 59 -98 154.5t-39 216.5zM475 537q0 -59 7 -139.5t30 -143.5q18 -53 42 -84 t52 -55v815q-18 -12 -40.5 -32.5t-42 -63.5t-34 -113.5t-14.5 -183.5z" />
<glyph unicode="&#xa3;" horiz-adv-x="1236" d="M18 135q0 78 49.5 122t120.5 44q14 0 27.5 -2t38.5 -8l67 -18l113 -29q2 14 3 26.5t1 24.5q0 10 -1 20.5t-3 20.5q-4 35 -23 92l-36 102l-62 175h-235v81h215q-4 31 -7 61t-3 64q0 123 47 220.5t122.5 165t167 103.5t181.5 36q70 0 124 -17.5t93 -46.5t59.5 -67.5 t20.5 -81.5q0 -53 -40 -98.5t-112 -45.5q-49 0 -79.5 20.5t-47 47.5t-21.5 54.5t-7 41.5q-4 35 -17.5 67.5t-60.5 32.5q-63 0 -91 -50t-28 -111q0 -33 4 -65t13.5 -75t25.5 -103l43 -153h348v-81h-330l7.5 -52.5t3.5 -54.5q0 -55 -11.5 -100t-33 -87t-51.5 -83l-66 -88 q33 0 65.5 -1t65.5 -1q37 0 84 2t95 12t94 30.5t79 55.5q49 53 56.5 110.5t7.5 110.5h80v-115q0 -49 -2.5 -89t-7.5 -73.5t-15 -66.5q-37 -119 -129 -184.5t-242 -65.5q-66 0 -115 12.5t-88.5 33t-71.5 44t-61 47.5q-72 -61 -128 -98t-126 -37q-88 0 -129 52.5t-41 115.5z " />
<glyph unicode="&#xa4;" d="M49 221l162 160l-30 46q-17 28 -31.5 65.5t-24.5 88t-10 113.5q0 125 34.5 200t61.5 114l-158 157l156 158l158 -158l49 30q29 17 66.5 31.5t88 25t111.5 10.5q125 0 199.5 -35t113.5 -62l160 158l160 -158l-162 -157q12 -18 28.5 -46t32 -67t25.5 -88t10 -112.5 t-10 -114t-25.5 -89t-32.5 -66.5l-30 -46l162 -162l-160 -158l-160 162q-18 -12 -46.5 -28.5t-66.5 -31t-87.5 -24.5t-110.5 -10q-63 0 -113.5 10t-88.5 25.5t-66.5 32t-46.5 28.5l-160 -160zM322 694q0 -84 29.5 -150.5t80.5 -113.5t116.5 -72.5t137.5 -25.5t136.5 26.5 t112.5 74.5t76.5 114.5t28.5 146.5q0 84 -29.5 150.5t-79.5 114t-115.5 73t-133.5 25.5t-133.5 -24.5t-115.5 -72t-80.5 -114t-30.5 -152.5z" />
<glyph unicode="&#xa5;" horiz-adv-x="1449" d="M2 1356v59h813v-59h-192l73 -131l222 -353l204 365l60 119h-197v59h459v-59h-160l-70 -113l-213 -373h256v-92h-309l-14 -26v-144h323v-92h-323v-457h176v-59h-770v59h174v457h-319v92h319v144l-16 26h-303v92h243l-225 357l-98 129h-113z" />
<glyph unicode="&#xa6;" horiz-adv-x="468" d="M129 358h211v-716h-211v716zM129 666v716h211v-716h-211z" />
<glyph unicode="&#xa7;" horiz-adv-x="1150" d="M61 856q0 125 36 238.5t107.5 197.5t179.5 134.5t249 50.5q94 0 167.5 -23.5t125 -63.5t77 -92.5t25.5 -107.5q0 -84 -50 -129t-114 -45q-29 0 -57.5 9t-51 29.5t-36.5 49.5q-14 30 -14 70q0 25 6 47q2 6 7 19l10 28q5 14 9 27.5t4 19.5q0 35 -30.5 55.5t-81.5 20.5 q-47 0 -87 -15.5t-69 -41t-45 -60.5t-16 -74q0 -23 5 -47.5t23.5 -54t53 -67.5t92.5 -87l215 -182q43 -37 92 -85t92 -115.5t70.5 -160t27.5 -215.5t-33.5 -237.5t-103 -203.5t-178.5 -143.5t-256 -54.5q-88 0 -169 22.5t-142.5 65.5t-98 103.5t-36.5 134.5q0 45 14 77 t37.5 52.5t51.5 28.5t54 8q59 0 108.5 -39t49.5 -117q0 -27 -6 -51q-4 -23 -12.5 -43t-8.5 -43q0 -61 49.5 -87t108.5 -26q51 0 97 14.5t80 42t53.5 65.5t19.5 87q0 37 -12.5 69t-35 62.5t-58.5 63.5l-81 74l-262 223l-90 90q-45 47 -81 108.5t-58.5 140.5t-22.5 183z M225 991q0 -80 18.5 -139t47 -106.5t63.5 -84t68 -67.5l137 -117l141 -127q61 -57 102.5 -112.5t63 -115t21.5 -134.5q0 -86 -23.5 -148.5t-40.5 -97.5q25 31 42.5 56.5t35.5 72.5q12 41 20.5 85t8.5 91q0 96 -29 172t-73 138.5t-98 112.5l-105 93l-138 119q-47 41 -88 87 t-67 112q-23 49 -32 109.5t-9 101.5t7 85t28 85q6 14 14 27.5t18 27.5l-23 -24q-11 -11 -22 -25q-4 -4 -17 -23.5t-29.5 -55.5t-29 -85.5t-12.5 -112.5z" />
<glyph unicode="&#xa8;" horiz-adv-x="598" d="M-74 1260q0 70 48.5 116.5t113.5 46.5q68 0 115 -49t47 -114.5t-46 -112.5t-116 -47q-68 0 -115 47t-47 113zM348 1260q0 70 48 116.5t113.5 46.5t114 -48t48.5 -115q0 -66 -47 -113t-115 -47t-115 47q-23 23 -35 52.5t-12 60.5z" />
<glyph unicode="&#xa9;" horiz-adv-x="1705" d="M125 721q0 158 58.5 292t158.5 231t231.5 152.5t278.5 55.5q160 0 294 -58.5t231.5 -158.5t151.5 -233.5t54 -282.5q0 -152 -56.5 -284t-154.5 -230.5t-231 -154.5t-289 -56q-141 0 -273.5 53t-232.5 149.5t-160.5 229.5t-60.5 295zM190 721q0 -139 52.5 -260t142.5 -210 t211 -140.5t258 -51.5q141 0 262 52.5t210 141.5t140.5 209t51.5 257t-49.5 258t-138.5 212t-210 144t-264 53q-139 0 -261 -53t-212 -143t-141.5 -211t-51.5 -258zM381 748q0 223 113.5 333.5t353.5 110.5q27 0 61.5 -2t104.5 -8l53 -4q43 -3 81 -4q10 0 19 1q47 1 58 1 q2 -57 3 -94l2 -68l2 -68q1 -35 3 -88h-72q-10 49 -23.5 99.5t-40 92.5t-71.5 68.5t-115 26.5q-88 0 -137 -42t-71.5 -101.5t-27.5 -125t-5 -110.5q0 -25 1 -61.5t6 -79.5t13 -87t23 -83q31 -78 81 -118t140 -40q72 0 115 27.5t66.5 67.5t32.5 87t13 88h74v-286l-199 -19 l-97 -8q-50 -4 -97 -4q-98 0 -182 22.5t-146.5 79t-98.5 153t-36 243.5z" />
<glyph unicode="&#xaa;" horiz-adv-x="768" d="M35 1012q0 59 21.5 95t54 57.5t73.5 31.5t78 16q41 6 79 15l79 16q-2 45 -4 77t-8.5 52.5t-18.5 28.5t-37 8q-16 0 -37.5 -10t-29.5 -43q-4 -12 -4 -24.5t-2 -26.5q-10 -47 -39 -58.5t-64 -11.5q-8 0 -23.5 1t-29.5 7t-25.5 20.5t-11.5 39.5q0 31 13.5 57t33.5 47 q45 41 112.5 49t127.5 8q20 0 51 -1t63.5 -7t64.5 -20.5t56 -38.5q35 -35 40 -75t5 -79v-203v-22q0 -16 1 -34.5t2 -34t1 -19.5q4 -16 14.5 -27.5t39.5 -11.5q8 0 15 1t15 1v-51q-47 -4 -85 -8.5t-83 -4.5q-37 0 -61.5 6.5t-39.5 16.5t-23 24l-17 27q-29 -35 -64.5 -57.5 t-115.5 -22.5q-23 0 -59.5 4t-71.5 22.5t-60.5 56.5t-25.5 106zM279 1018q0 -10 1 -28.5t7 -39t18 -35t37 -14.5q2 0 13.5 2t24.5 12.5t24.5 34t15.5 66.5q4 53 4 91t-2 85q-35 -10 -61.5 -21.5t-45 -29t-27.5 -47t-9 -76.5z" />
<glyph unicode="&#xab;" horiz-adv-x="980" d="M25 502v88l424 332l53 -48l-152 -329l152 -324l-53 -43zM449 500v90l430 332l53 -50l-152 -329l152 -322l-53 -43z" />
<glyph unicode="&#xac;" d="M0 496v211h1366v-707h-211v496h-1155z" />
<glyph unicode="&#xad;" horiz-adv-x="768" d="M57 424v250h693v-250h-693z" />
<glyph unicode="&#xae;" horiz-adv-x="1705" d="M123 723q0 158 58.5 291t158.5 230t232.5 152.5t279.5 55.5q158 0 292 -58.5t232.5 -158.5t152.5 -232.5t54 -281.5q0 -152 -57.5 -285t-155.5 -231.5t-231 -154.5t-287 -56q-143 0 -274.5 53t-232.5 149.5t-161.5 230.5t-60.5 296zM188 723q0 -139 52.5 -261t142.5 -211 t211 -140.5t258 -51.5q141 0 262 51.5t210 141.5t141.5 210t52.5 259q0 135 -49.5 257t-138.5 212t-211 143t-263 53t-263 -52t-212 -142t-141.5 -211t-51.5 -258zM475 260v102q37 4 54.5 8.5t27.5 16.5q8 10 9 23.5t1 66.5v527q0 27 -1 42t-9 24t-27.5 13t-54.5 7v104 q88 -2 127 -3t74 -1l242 4q59 0 112 -7t98 -30q57 -31 89 -82t32 -114q0 -94 -60.5 -147.5t-154.5 -72.5q27 -12 44.5 -31.5t28.5 -41t18.5 -43t11.5 -37.5l18 -78q10 -43 19.5 -65.5t25.5 -22.5q12 0 25.5 17.5t25.5 92.5l92 -14q-8 -39 -20 -85t-34.5 -86t-57.5 -67.5 t-88 -27.5q-49 0 -80 20.5t-52.5 56.5t-35.5 82l-29 99q-12 49 -22.5 84t-25.5 58.5t-37.5 34.5t-59.5 13h-33v-258q0 -25 4 -39t15.5 -21t32 -11t52.5 -8v-103q-35 0 -60.5 1t-47 2t-40.5 1h-44q-51 0 -102.5 -1t-102.5 -3zM768 829h45q47 0 70.5 1t42.5 6q59 10 87.5 44.5 t28.5 80t-19 70t-46 35.5t-54.5 13t-41.5 2q-43 0 -65.5 -3t-33 -14t-12.5 -32.5t-2 -58.5v-144z" />
<glyph unicode="&#xaf;" horiz-adv-x="598" d="M-61 1180v110h723v-110h-723z" />
<glyph unicode="&#xb0;" horiz-adv-x="724" d="M10 1192q0 72 28 136.5t76 112.5t111.5 76.5t136.5 28.5q70 0 134.5 -27.5t113.5 -74.5t78 -111.5t29 -140.5t-29 -140.5t-78 -110.5t-112.5 -72.5t-130.5 -26.5q-76 0 -140.5 27.5t-112.5 75.5t-76 111.5t-28 135.5zM217 1192q0 -61 44 -105q42 -41 98 -41q3 0 6 1 q25 0 50 10t46.5 28.5t35 46t13.5 62.5t-13.5 61.5t-34 45t-47 28.5t-53.5 10q-66 0 -105.5 -45t-39.5 -102z" />
<glyph unicode="&#xb1;" d="M86 0v211h1194v-211h-1194zM86 766v211h494v461h211v-461h489v-211h-489v-463h-211v463h-494z" />
<glyph unicode="&#xb2;" horiz-adv-x="768" d="M35 584l139 139q66 68 115 136.5t76.5 143t27.5 160.5q0 80 -29.5 132.5t-89.5 52.5q-31 0 -55 -14.5t-39.5 -38t-24 -52.5t-8.5 -57q0 -57 20.5 -93t47.5 -67l-43 -41q-29 35 -59.5 83t-30.5 130q0 53 19.5 100.5t55.5 82t87 55t116 20.5q80 0 137.5 -24.5t93.5 -62.5 t52 -85t16 -92q0 -55 -21.5 -102.5t-52 -85t-65.5 -67.5l-59 -50q-35 -29 -72 -54l-72 -53h191q39 0 62.5 5.5t39 19.5t24.5 37.5t21 60.5h64l-119 -360h-543z" />
<glyph unicode="&#xb3;" horiz-adv-x="768" d="M72 752l57 24q8 -20 24.5 -49t40 -54.5t55.5 -44t75 -18.5q37 0 57 19.5t29.5 51.5t11.5 71t2 75q0 20 -1 54t-9 67t-26.5 56.5t-51.5 23.5q-29 0 -54.5 -18.5t-43.5 -34.5l-66 -60l-41 46l275 253h-211l-52 -110l-57 24l141 318h449l16 -47l-330 -303q16 2 35 4t35 2 q51 0 99.5 -19.5t85 -54.5t58 -83t21.5 -107q0 -49 -17.5 -103.5t-55 -100.5t-98 -76t-146.5 -30q-74 0 -126 23.5t-87 57.5t-57.5 73t-36.5 70z" />
<glyph unicode="&#xb4;" horiz-adv-x="598" d="M63 1073l87 289q16 49 34 69q15 16 59 16q9 0 19 -1h205q31 0 48 -5t17 -28q0 -16 -9 -27.5t-19 -21.5l-371 -291h-70z" />
<glyph unicode="&#xb5;" horiz-adv-x="1409" d="M37 -383h133l4 131v1020l-4 160h-133v61h133q70 0 114 1t84 3t85 4t112 7l-4 -230v-387q0 -72 1 -110.5t2 -61t2 -34t3 -23.5l6 -24q4 -15 14.5 -29.5t28 -24.5t48 -10t69.5 18t70 66q33 55 40 120.5t9 161.5v338l-4 154h-139v61h139q70 0 114 1t83.5 3t84 4t111.5 7 l-6 -226v-571l4 -148h145v-59h-516l-4 162q-31 -64 -65.5 -100.5t-67.5 -55t-60.5 -24t-45.5 -5.5q-27 0 -42.5 5.5l-31.5 11.5v-244l4 -133h137v-63h-657v63z" />
<glyph unicode="&#xb6;" d="M174 1020q0 113 38 190.5t93 128.5q43 39 88 59.5t88 31t82 13.5t70 3h491v-135h-71v-1653h-146v1653h-268v-1653h-145v969q-31 6 -78 20t-99 53q-72 57 -107.5 142.5t-35.5 177.5z" />
<glyph unicode="&#xb7;" horiz-adv-x="598" d="M94 547q0 39 15.5 74.5t43 63.5t63.5 43t77 15t77 -15t63.5 -42t43 -62.5t15.5 -76.5q0 -84 -57.5 -141.5t-141.5 -57.5q-82 0 -139 58q-60 59 -60 141z" />
<glyph unicode="&#xb8;" horiz-adv-x="598" d="M51 -395l43 53q20 -18 44 -33.5t63 -15.5q53 0 78.5 40t25.5 91q0 66 -26.5 89.5t-45.5 23.5q-23 0 -35 -13.5t-18 -33t-7 -41t-1 -35.5h-63v155q49 12 96 21.5t98 9.5q61 0 106.5 -17.5t75 -45t45 -63.5t15.5 -75t-15.5 -75.5t-47 -66.5t-82 -48.5t-119.5 -18.5 q-45 0 -80 9.5t-62.5 25t-48.5 32t-39 32.5z" />
<glyph unicode="&#xb9;" horiz-adv-x="768" d="M135 1190q57 39 98 70.5t73 60.5t60.5 61.5t59.5 75.5h100l-2 -164v-567l4 -129h95v-55h-469v57h100l4 127v373l2 100q-12 -10 -22 -17l-20 -14l-20 -14q-11 -8 -28 -18z" />
<glyph unicode="&#xba;" horiz-adv-x="811" d="M47 1145q0 86 31 147.5t81 100.5t115.5 57t133.5 18q74 0 143.5 -20.5t120.5 -73.5q33 -33 58.5 -89t25.5 -134q0 -66 -21.5 -125t-65.5 -105.5t-112 -73t-158 -26.5q-76 0 -140 21.5t-111.5 62.5t-74 101.5t-26.5 138.5zM313 1155q0 -133 13.5 -208t72.5 -75 q14 0 25.5 4.5t24.5 18.5q8 10 15 25.5t13 44t9 73.5t3 113v45q0 29 -2 60.5t-6 61.5t-12 48q-4 10 -17.5 28.5t-45.5 20.5q-33 0 -51.5 -22.5t-28 -59.5t-11.5 -84t-2 -94z" />
<glyph unicode="&#xbb;" horiz-adv-x="980" d="M45 211l154 328l-154 323l55 45l424 -323v-90l-424 -334zM475 209l152 330l-152 323l49 43l428 -323v-88l-428 -332z" />
<glyph unicode="&#xbc;" horiz-adv-x="1792" d="M135 1190q57 39 98 70.5t73 60.5t60.5 61.5t59.5 75.5h100l-2 -164v-567l4 -129h95v-55h-469v57h100l4 127v373l2 100q-12 -10 -22 -17l-20 -14l-20 -14q-11 -8 -28 -18zM455 0l792 1446h166l-792 -1446h-166zM1040 240v69l441 606h127l-2 -145v-455h67v117h66v-305h-66 v113h-67v-240h-263v240h-303zM1126 315h217v297z" />
<glyph unicode="&#xbd;" horiz-adv-x="1792" d="M135 1190l98 72q41 31 73 60.5t60.5 62t59.5 75.5h100l-2 -164v-567l4 -131h95v-55h-469v57h100l4 129v371l2 100l-41 -31q-14 -10 -49 -30zM424 0l795 1448h165l-794 -1448h-166zM1059 41l139 139q66 68 115 136.5t76.5 143.5t27.5 161q0 80 -29.5 132t-89.5 52 q-31 0 -55 -15.5t-39.5 -38t-24 -52t-8.5 -56.5q0 -57 20.5 -93t47.5 -69l-43 -39l-31 37q-16 20 -29.5 45t-21.5 57.5t-8 73.5q0 53 19.5 100.5t55.5 82t87 55t116 20.5q80 0 137.5 -24.5t93.5 -62.5t52 -85t16 -92q0 -55 -21.5 -102t-52 -86t-65.5 -68l-59 -49 q-35 -29 -72 -54l-72 -52h191q39 0 62.5 5t39 19t24.5 38t21 60h64l-119 -360h-543z" />
<glyph unicode="&#xbe;" horiz-adv-x="1792" d="M72 752l57 24q8 -20 24.5 -49t40 -54.5t55.5 -44t75 -18.5q37 0 57 19.5t29.5 51.5t11.5 71t2 75q0 20 -1 54t-9 67t-26.5 56.5t-51.5 23.5q-29 0 -54.5 -18.5t-43.5 -34.5l-66 -60l-41 46l275 253h-211l-52 -110l-57 24l141 318h449l16 -47l-330 -303q16 2 35 4t35 2 q51 0 99.5 -19.5t85 -54.5t58 -83t21.5 -107q0 -49 -17.5 -103.5t-55 -100.5t-98 -76t-146.5 -30q-74 0 -126 23.5t-87 57.5t-57.5 73t-36.5 70zM483 0l795 1446h166l-795 -1446h-166zM1040 240v69l441 606h127l-2 -145v-455h67v117h66v-305h-66v113h-67v-240h-263v240h-303 zM1126 315h217v297z" />
<glyph unicode="&#xbf;" horiz-adv-x="1067" d="M80 354q0 84 18.5 141.5t49 97.5t70.5 66.5t85 49.5l70 32l69 33q39 18 60.5 33.5t33 32t14.5 37t3 49.5v51h78v-57q0 -33 -2 -56.5t-7.5 -45t-15.5 -41t-28 -44.5q-31 -41 -64 -76q-25 -31 -38 -56.5t-19 -49t-8.5 -49t-2.5 -58.5v-155q2 -47 5.5 -88t15.5 -80 q14 -41 42 -71t71 -30q37 0 56 23t19 51q0 12 -2 23.5t-6 24t-10 24.5t-10 27q-10 31 -11 59q0 66 42 105.5t108 39.5q80 0 124 -52t44 -122q0 -57 -27.5 -107t-80 -88t-128 -59.5t-170.5 -21.5q-115 0 -211 35q-237 87 -237 372zM387 1276q0 39 15.5 74.5t43 63.5 t63.5 43.5t77 15.5q39 0 75.5 -14.5t65.5 -43.5q27 -29 42 -64.5t15 -74.5q0 -84 -57 -141.5t-141 -57.5q-41 0 -77 15.5t-63.5 42t-43 63.5t-15.5 78z" />
<glyph unicode="&#xc0;" horiz-adv-x="1492" d="M0 0v59h147l31 66l22 48l18 45l22 58l446 1190h107l450 -1194l86 -213h158v-59h-830v59h201l-67 211l-62 181h-344l-63 -175l-21 -55q-8 -23 -15 -46l-15 -50l-17 -66h195v-59h-449zM397 1798q0 27 20.5 34t47.5 7h240q39 0 54 -12t23 -47l52 -221h-70l-287 163 q-47 27 -63.5 40t-16.5 36zM410 518h297l-144 408z" />
<glyph unicode="&#xc1;" horiz-adv-x="1492" d="M0 0v59h147l31 66l22 48l18 45l22 58l446 1190h107l450 -1194l86 -213h158v-59h-830v59h201l-67 211l-62 181h-344l-63 -175l-21 -55q-8 -23 -15 -46l-15 -50l-17 -66h195v-59h-449zM410 518h297l-144 408zM651 1559l54 221q6 35 22 47t55 12h240q25 0 46.5 -7t21.5 -34 q0 -23 -17.5 -36t-64.5 -40l-287 -163h-70z" />
<glyph unicode="&#xc2;" horiz-adv-x="1492" d="M0 0v59h147l31 66l22 48l18 45l22 58l446 1190h107l450 -1194l86 -213h158v-59h-830v59h201l-67 211l-62 181h-344l-63 -175l-21 -55q-8 -23 -15 -46l-15 -50l-17 -66h195v-59h-449zM403 1556l267 283h145l275 -283h-299l-138 142l-135 -142h-115zM410 518h297l-144 408z " />
<glyph unicode="&#xc3;" horiz-adv-x="1492" d="M0 0v59h147l31 66l22 48l18 45l22 58l446 1190h107l450 -1194l86 -213h158v-59h-830v59h201l-67 211l-62 181h-344l-63 -175l-21 -55q-8 -23 -15 -46l-15 -50l-17 -66h195v-59h-449zM367 1554l47 97q12 29 28.5 57.5t38 51t49 35.5t66.5 13q27 0 47.5 -5t40.5 -11 l154 -53q27 -10 52 -17.5t54 -7.5q51 0 73.5 24.5t39.5 51.5l61 -37l-43 -90l-32 -58q-15 -28 -36.5 -49.5t-49 -34t-66.5 -12.5q-23 0 -39 4.5l-37 10.5l-172 57q-18 6 -39.5 11t-46.5 5q-57 0 -80.5 -24.5t-40.5 -50.5zM410 518h297l-144 408z" />
<glyph unicode="&#xc4;" horiz-adv-x="1492" d="M0 0v59h147l31 66l22 48l18 45l22 58l446 1190h107l450 -1194l86 -213h158v-59h-830v59h201l-67 211l-62 181h-344l-63 -175l-21 -55q-8 -23 -15 -46l-15 -50l-17 -66h195v-59h-449zM344 1699.5q0 69.5 49 119t119 49.5t119 -49.5t49 -119t-49 -118.5t-119 -49t-119 49 t-49 118.5zM410 518h297l-144 408zM823 1699.5q0 69.5 49.5 119t119 49.5t118.5 -49.5t49 -119t-49 -118.5t-118.5 -49t-119 49t-49.5 118.5z" />
<glyph unicode="&#xc5;" horiz-adv-x="1492" d="M0 0v59h147l31 66l22 48l18 45l22 58l446 1190h107l450 -1194l86 -213h158v-59h-830v59h201l-67 211l-62 181h-344l-63 -175l-21 -55q-8 -23 -15 -46l-15 -50l-17 -66h195v-59h-449zM410 518h297l-144 408zM549 1712q0 41 15.5 77t41 61.5t60 41t75.5 15.5q39 0 75 -15.5 t62.5 -41t42 -61.5t15.5 -77q0 -39 -15.5 -73.5t-42 -61.5t-62.5 -42t-75 -15q-37 0 -72.5 14t-62.5 43q-29 27 -43 62.5t-14 72.5zM629 1712q0 -47 33 -80q37 -33 81 -33q47 0 80 34t33 79q0 49 -32.5 82t-80 33t-81 -33t-33.5 -82z" />
<glyph unicode="&#xc6;" horiz-adv-x="2091" d="M0 0v59h158l36 63l27 48l26 47l32 62l538 1107h-164v60h1332v-457h-68q-14 59 -36.5 124t-76.5 122q-49 51 -108.5 79.5t-123 43t-127 16.5t-118.5 2l-4 -192v-426q35 4 65.5 12t67.5 33q39 27 60.5 58.5t33 65.5t14.5 66.5t5 63.5h67v-664h-67q-2 51 -10.5 102.5 t-49.5 102.5q-41 55 -89 71.5t-97 24.5v-436l4 -186q78 0 147.5 1t133 13t120 39t107.5 74q41 39 66.5 77.5t40 75.5t21.5 72t11 65h66v-489h-1309v59h170l4 195v268h-416l-124 -264l-27 -60l-19 -43l-17 -41q-9 -22 -21 -55h170v-59h-451zM524 594h381v786z" />
<glyph unicode="&#xc7;" horiz-adv-x="1536" d="M88 721q0 184 62.5 326.5t170 238.5t252 146.5t310.5 50.5q80 0 149.5 -10.5t136 -27t130.5 -37.5l133 -46v-399h-78q-4 31 -11.5 65.5t-20.5 74.5t-35.5 81t-59.5 84q-68 80 -140.5 107.5t-128.5 27.5q-82 0 -161.5 -44t-132.5 -122q-37 -53 -57.5 -118.5t-31 -133 t-12.5 -132.5t-2 -120q0 -164 19.5 -294t81.5 -226q18 -29 42.5 -56.5t56.5 -51t73 -38t92 -14.5q53 0 131 26.5t160 115.5q47 49 75.5 96t44 88t22.5 73.5t11 57.5h72v-420q-139 -49 -274.5 -87t-305.5 -38q-195 0 -340 61.5t-241.5 165t-144.5 240.5t-48 289zM580 -395 l45 53q20 -18 43.5 -33.5t62.5 -15.5q53 0 79 40t26 91q0 66 -27 89.5t-45 23.5q-23 0 -35 -13.5t-18 -33t-7.5 -41t-1.5 -35.5h-63v155q49 12 96 21.5t99 9.5q61 0 106 -17.5t74.5 -45t45 -63.5t15.5 -75t-15.5 -75.5t-47 -66.5t-81.5 -48.5t-120 -18.5q-45 0 -80 9.5 t-62.5 25t-49 32t-39.5 32.5z" />
<glyph unicode="&#xc8;" horiz-adv-x="1449" d="M39 0v61h174l4 175v966l-4 184h-174v60h1294v-457h-65q-10 43 -23.5 87t-35 87t-54.5 81t-82 69q-90 53 -207 61q-93 7 -184 7q-23 0 -45 -1l-4 -180v-438q53 4 105.5 14t103.5 64q27 27 42 54.5t22 55t9 55.5l5 56h67v-666h-67q-4 57 -13.5 114.5t-62.5 111.5 q-51 53 -104.5 63t-106.5 14v-465l4 -163q86 0 162 1t144.5 13t129 39t113.5 76q41 37 66.5 75.5t39 76.5t20.5 74t11 67h68v-492h-1352zM418 1798q0 27 20.5 34t46.5 7h240q39 0 54.5 -12t23.5 -47l51 -221h-70l-286 163q-47 27 -63.5 40t-16.5 36z" />
<glyph unicode="&#xc9;" horiz-adv-x="1449" d="M39 0v61h174l4 175v966l-4 184h-174v60h1294v-457h-65q-10 43 -23.5 87t-35 87t-54.5 81t-82 69q-90 53 -207 61q-93 7 -184 7q-23 0 -45 -1l-4 -180v-438q53 4 105.5 14t103.5 64q27 27 42 54.5t22 55t9 55.5l5 56h67v-666h-67q-4 57 -13.5 114.5t-62.5 111.5 q-51 53 -104.5 63t-106.5 14v-465l4 -163q86 0 162 1t144.5 13t129 39t113.5 76q41 37 66.5 75.5t39 76.5t20.5 74t11 67h68v-492h-1352zM588 1559l53 221q6 35 22.5 47t55.5 12h239q25 0 46.5 -7t21.5 -34q0 -23 -17.5 -36t-64.5 -40l-287 -163h-69z" />
<glyph unicode="&#xca;" horiz-adv-x="1449" d="M39 0v61h174l4 175v966l-4 184h-174v60h1294v-457h-65q-10 43 -23.5 87t-35 87t-54.5 81t-82 69q-90 53 -207 61q-93 7 -184 7q-23 0 -45 -1l-4 -180v-438q53 4 105.5 14t103.5 64q27 27 42 54.5t22 55t9 55.5l5 56h67v-666h-67q-4 57 -13.5 114.5t-62.5 111.5 q-51 53 -104.5 63t-106.5 14v-465l4 -163q86 0 162 1t144.5 13t129 39t113.5 76q41 37 66.5 75.5t39 76.5t20.5 74t11 67h68v-492h-1352zM381 1556l266 283h146l274 -283h-299l-137 142l-135 -142h-115z" />
<glyph unicode="&#xcb;" horiz-adv-x="1449" d="M39 0v61h174l4 175v966l-4 184h-174v60h1294v-457h-65q-10 43 -23.5 87t-35 87t-54.5 81t-82 69q-90 53 -207 61q-93 7 -184 7q-23 0 -45 -1l-4 -180v-438q53 4 105.5 14t103.5 64q27 27 42 54.5t22 55t9 55.5l5 56h67v-666h-67q-4 57 -13.5 114.5t-62.5 111.5 q-51 53 -104.5 63t-106.5 14v-465l4 -163q86 0 162 1t144.5 13t129 39t113.5 76q41 37 66.5 75.5t39 76.5t20.5 74t11 67h68v-492h-1352zM311 1699.5q0 69.5 49.5 119t119 49.5t118.5 -49.5t49 -119t-49 -118.5t-118.5 -49t-119 49t-49.5 118.5zM791 1699.5q0 69.5 49 119 t118.5 49.5t118.5 -49.5t49 -119t-49 -118.5t-118.5 -49t-118.5 49t-49 118.5z" />
<glyph unicode="&#xcc;" horiz-adv-x="854" d="M41 0v59h170l4 183v946l-4 198h-170v60h768v-60h-174l-4 -198v-946l4 -183h174v-59h-768zM119 1798q0 27 20.5 34t46.5 7h240q39 0 54.5 -12t23.5 -47l51 -221h-70l-286 163q-47 27 -63.5 40t-16.5 36z" />
<glyph unicode="&#xcd;" horiz-adv-x="854" d="M41 0v59h170l4 183v946l-4 198h-170v60h768v-60h-174l-4 -198v-946l4 -183h174v-59h-768zM289 1559l53 221q6 35 22.5 47t55.5 12h239q25 0 46.5 -7t21.5 -34q0 -23 -17.5 -36t-64.5 -40l-287 -163h-69z" />
<glyph unicode="&#xce;" horiz-adv-x="854" d="M41 0v59h170l4 183v946l-4 198h-170v60h768v-60h-174l-4 -198v-946l4 -183h174v-59h-768zM82 1556l266 283h146l274 -283h-299l-137 142l-135 -142h-115z" />
<glyph unicode="&#xcf;" horiz-adv-x="854" d="M35 1699.5q0 69.5 49 119t118.5 49.5t119 -49.5t49.5 -119t-49.5 -118.5t-119 -49t-118.5 49t-49 118.5zM41 0v59h170l4 183v946l-4 198h-170v60h768v-60h-174l-4 -198v-946l4 -183h174v-59h-768zM514 1699.5q0 69.5 49 119t119 49.5t119 -49.5t49 -119t-49 -118.5 t-119 -49t-119 49t-49 118.5z" />
<glyph unicode="&#xd0;" horiz-adv-x="1748" d="M39 0v59h178l4 170v478h-178v108h178v371l-4 200h-178v60h864q74 -4 148.5 -9t147.5 -23.5t141.5 -53.5t129.5 -98q100 -104 140.5 -239.5t40.5 -279.5q0 -80 -11.5 -159.5t-35.5 -157.5q-47 -145 -121 -227t-161 -124t-179 -55.5t-174 -19.5h-930zM635 225l4 -157 q13 0 26 -1q121 0 214 18q102 19 170.5 88t102.5 198t34 348q0 41 -2 96t-8 125q-16 147 -59.5 234.5t-113 132.5t-161.5 58t-203 13l-4 -192v-371h264v-108h-264v-482z" />
<glyph unicode="&#xd1;" horiz-adv-x="1622" d="M33 0v59h180l4 170v957l-4 200h-180v60h696l625 -854v622l-4 172h-170v60h430v-60h-174l-4 -174v-1259h-127l-1010 1366v-1090l4 -170h164v-59h-430zM430 1554l47 97q12 29 28.5 57.5t38 51t49.5 35.5t66 13q27 0 47.5 -5t41.5 -11l153 -53q27 -10 52.5 -17.5t54.5 -7.5 q51 0 73.5 24.5t38.5 51.5l62 -37l-43 -90l-32 -58q-15 -28 -36.5 -49.5t-49.5 -34t-67 -12.5q-23 0 -39 4.5l-36 10.5l-172 57q-18 6 -40 11t-46 5q-57 0 -81 -24.5t-40 -50.5z" />
<glyph unicode="&#xd2;" horiz-adv-x="1748" d="M90 713q0 172 57.5 313t159 241.5t242.5 157t309 60.5h13q169 0 311 -51q147 -53 253.5 -152.5t166 -239t59.5 -305.5q0 -160 -53.5 -300t-154.5 -246.5t-248.5 -168t-338.5 -61.5q-170 0 -313 53.5t-245.5 151.5t-160 236.5t-57.5 310.5zM557 709q0 -43 1 -87t3 -90 q4 -59 10.5 -120.5t20.5 -120.5q6 -23 19.5 -66t44 -86t83 -74.5t136 -31.5t137 32.5t85 76.5t45.5 87l19 62q12 51 18.5 122.5t9.5 140.5t4 121t1 62q0 68 -3 137.5t-10 135t-18.5 123t-27.5 98.5q-6 14 -21.5 46t-46.5 62.5t-79 52.5q-44 20 -106 19h-12 q-100 -4 -158.5 -59.5t-89 -129t-41 -148.5t-14.5 -120t-7 -107t-3 -138zM567 1798q0 27 20.5 34t47.5 7h240q39 0 54 -12t23 -47l52 -221h-70l-287 163q-47 27 -63.5 40t-16.5 36z" />
<glyph unicode="&#xd3;" horiz-adv-x="1748" d="M90 713q0 172 57.5 313t159 241.5t242.5 157t309 60.5h13q169 0 311 -51q147 -53 253.5 -152.5t166 -239t59.5 -305.5q0 -160 -53.5 -300t-154.5 -246.5t-248.5 -168t-338.5 -61.5q-170 0 -313 53.5t-245.5 151.5t-160 236.5t-57.5 310.5zM557 709q0 -43 1 -87t3 -90 q4 -59 10.5 -120.5t20.5 -120.5q6 -23 19.5 -66t44 -86t83 -74.5t136 -31.5t137 32.5t85 76.5t45.5 87l19 62q12 51 18.5 122.5t9.5 140.5t4 121t1 62q0 68 -3 137.5t-10 135t-18.5 123t-27.5 98.5q-6 14 -21.5 46t-46.5 62.5t-79 52.5q-44 20 -106 19h-12 q-100 -4 -158.5 -59.5t-89 -129t-41 -148.5t-14.5 -120t-7 -107t-3 -138zM737 1559l54 221q6 35 22 47t55 12h240q25 0 46.5 -7t21.5 -34q0 -23 -17.5 -36t-64.5 -40l-287 -163h-70z" />
<glyph unicode="&#xd4;" horiz-adv-x="1748" d="M90 713q0 172 57.5 313t159 241.5t242.5 157t309 60.5h13q169 0 311 -51q147 -53 253.5 -152.5t166 -239t59.5 -305.5q0 -160 -53.5 -300t-154.5 -246.5t-248.5 -168t-338.5 -61.5q-170 0 -313 53.5t-245.5 151.5t-160 236.5t-57.5 310.5zM530 1556l267 283h145l275 -283 h-299l-138 142l-135 -142h-115zM557 709q0 -43 1 -87t3 -90q4 -59 10.5 -120.5t20.5 -120.5q6 -23 19.5 -66t44 -86t83 -74.5t136 -31.5t137 32.5t85 76.5t45.5 87l19 62q12 51 18.5 122.5t9.5 140.5t4 121t1 62q0 68 -3 137.5t-10 135t-18.5 123t-27.5 98.5q-6 14 -21.5 46 t-46.5 62.5t-79 52.5q-44 20 -106 19h-12q-100 -4 -158.5 -59.5t-89 -129t-41 -148.5t-14.5 -120t-7 -107t-3 -138z" />
<glyph unicode="&#xd5;" horiz-adv-x="1748" d="M90 713q0 172 57.5 313t159 241.5t242.5 157t309 60.5h13q169 0 311 -51q147 -53 253.5 -152.5t166 -239t59.5 -305.5q0 -160 -53.5 -300t-154.5 -246.5t-248.5 -168t-338.5 -61.5q-170 0 -313 53.5t-245.5 151.5t-160 236.5t-57.5 310.5zM494 1554l47 97 q12 29 28.5 57.5t38 51t49 35.5t66.5 13q27 0 47.5 -5t40.5 -11l154 -53q27 -10 52 -17.5t54 -7.5q51 0 73.5 24.5t39.5 51.5l61 -37l-43 -90l-32 -58q-15 -28 -36.5 -49.5t-49 -34t-66.5 -12.5q-23 0 -39 4.5l-37 10.5l-172 57q-18 6 -39.5 11t-46.5 5q-57 0 -80.5 -24.5 t-40.5 -50.5zM557 709q0 -43 1 -87t3 -90q4 -59 10.5 -120.5t20.5 -120.5q6 -23 19.5 -66t44 -86t83 -74.5t136 -31.5t137 32.5t85 76.5t45.5 87l19 62q12 51 18.5 122.5t9.5 140.5t4 121t1 62q0 68 -3 137.5t-10 135t-18.5 123t-27.5 98.5q-6 14 -21.5 46t-46.5 62.5 t-79 52.5q-44 20 -106 19h-12q-100 -4 -158.5 -59.5t-89 -129t-41 -148.5t-14.5 -120t-7 -107t-3 -138z" />
<glyph unicode="&#xd6;" horiz-adv-x="1748" d="M90 713q0 172 57.5 313t159 241.5t242.5 157t309 60.5h13q169 0 311 -51q147 -53 253.5 -152.5t166 -239t59.5 -305.5q0 -160 -53.5 -300t-154.5 -246.5t-248.5 -168t-338.5 -61.5q-170 0 -313 53.5t-245.5 151.5t-160 236.5t-57.5 310.5zM469 1699.5q0 69.5 49 119 t119 49.5t119 -49.5t49 -119t-49 -118.5t-119 -49t-119 49t-49 118.5zM557 709q0 -43 1 -87t3 -90q4 -59 10.5 -120.5t20.5 -120.5q6 -23 19.5 -66t44 -86t83 -74.5t136 -31.5t137 32.5t85 76.5t45.5 87l19 62q12 51 18.5 122.5t9.5 140.5t4 121t1 62q0 68 -3 137.5t-10 135 t-18.5 123t-27.5 98.5q-6 14 -21.5 46t-46.5 62.5t-79 52.5q-44 20 -106 19h-12q-100 -4 -158.5 -59.5t-89 -129t-41 -148.5t-14.5 -120t-7 -107t-3 -138zM948 1699.5q0 69.5 49.5 119t119 49.5t118.5 -49.5t49 -119t-49 -118.5t-118.5 -49t-119 49t-49.5 118.5z" />
<glyph unicode="&#xd7;" d="M139 205l391 393l-391 393l152 152l391 -393l393 393l152 -152l-393 -393l393 -393l-152 -152l-393 393l-391 -393z" />
<glyph unicode="&#xd8;" horiz-adv-x="1748" d="M84 713q0 166 57.5 307t161 242.5t247.5 159t318 57.5q121 0 242 -31q90 -23 141.5 -51.5t89.5 -53.5l166 189l72 -64l-162 -184q23 -20 63 -63t77.5 -111t66.5 -163t29 -220q0 -145 -49.5 -283.5t-147.5 -245t-245.5 -171t-342.5 -64.5q-98 0 -174 14.5t-134 34 t-100 42.5l-73 42l-154 -178l-71 64l149 174q-29 29 -67.5 73.5t-73.5 111.5t-60.5 159t-25.5 213zM539 743q0 -94 4 -170.5t8 -142.5l614 711q-8 33 -23.5 79t-48 89t-86 73.5t-135.5 30.5q-49 0 -85.5 -11t-62.5 -26.5t-42 -31t-23 -23.5q-41 -47 -65.5 -121t-36.5 -154.5 t-15 -161t-3 -141.5zM571 307q6 -29 19.5 -76t45.5 -93t86 -79.5t142 -33.5q92 0 148.5 33.5t89.5 77.5t47 87t18 64q10 45 16.5 108.5t9.5 124t4 110.5t1 68q0 80 -4 156t-10 160z" />
<glyph unicode="&#xd9;" horiz-adv-x="1579" d="M27 1386v60h768v-60h-172l-5 -186v-665q2 -113 7.5 -183.5t25.5 -122.5q20 -49 52 -82.5t71 -53t82 -28t84 -8.5q74 0 148.5 23.5t119.5 68.5q35 33 54.5 74t28.5 88t12.5 99.5t3.5 105.5v682l-4 188h-164v60h420v-60h-168l-5 -186v-741q-2 -47 -5 -97.5t-17 -100.5 t-41 -98t-76 -89q-47 -41 -108.5 -63.5t-123 -33t-117.5 -13.5t-93 -3q-90 0 -177 7t-171 36q-90 29 -139.5 76t-74 101.5t-31.5 111.5t-9 108v801l-4 184h-172zM481 1798q0 27 20.5 34t47.5 7h239q39 0 54.5 -12t23.5 -47l52 -221h-70l-287 163q-47 27 -63.5 40t-16.5 36z " />
<glyph unicode="&#xda;" horiz-adv-x="1579" d="M27 1386v60h768v-60h-172l-5 -186v-665q2 -113 7.5 -183.5t25.5 -122.5q20 -49 52 -82.5t71 -53t82 -28t84 -8.5q74 0 148.5 23.5t119.5 68.5q35 33 54.5 74t28.5 88t12.5 99.5t3.5 105.5v682l-4 188h-164v60h420v-60h-168l-5 -186v-741q-2 -47 -5 -97.5t-17 -100.5 t-41 -98t-76 -89q-47 -41 -108.5 -63.5t-123 -33t-117.5 -13.5t-93 -3q-90 0 -177 7t-171 36q-90 29 -139.5 76t-74 101.5t-31.5 111.5t-9 108v801l-4 184h-172zM770 1559l53 221q6 35 22.5 47t55.5 12h240q25 0 46 -7t21 -34q0 -23 -17.5 -36t-64.5 -40l-286 -163h-70z" />
<glyph unicode="&#xdb;" horiz-adv-x="1579" d="M27 1386v60h768v-60h-172l-5 -186v-665q2 -113 7.5 -183.5t25.5 -122.5q20 -49 52 -82.5t71 -53t82 -28t84 -8.5q74 0 148.5 23.5t119.5 68.5q35 33 54.5 74t28.5 88t12.5 99.5t3.5 105.5v682l-4 188h-164v60h420v-60h-168l-5 -186v-741q-2 -47 -5 -97.5t-17 -100.5 t-41 -98t-76 -89q-47 -41 -108.5 -63.5t-123 -33t-117.5 -13.5t-93 -3q-90 0 -177 7t-171 36q-90 29 -139.5 76t-74 101.5t-31.5 111.5t-9 108v801l-4 184h-172zM444 1556l267 283h145l274 -283h-299l-137 142l-135 -142h-115z" />
<glyph unicode="&#xdc;" horiz-adv-x="1579" d="M27 1386v60h768v-60h-172l-5 -186v-665q2 -113 7.5 -183.5t25.5 -122.5q20 -49 52 -82.5t71 -53t82 -28t84 -8.5q74 0 148.5 23.5t119.5 68.5q35 33 54.5 74t28.5 88t12.5 99.5t3.5 105.5v682l-4 188h-164v60h420v-60h-168l-5 -186v-741q-2 -47 -5 -97.5t-17 -100.5 t-41 -98t-76 -89q-47 -41 -108.5 -63.5t-123 -33t-117.5 -13.5t-93 -3q-90 0 -177 7t-171 36q-90 29 -139.5 76t-74 101.5t-31.5 111.5t-9 108v801l-4 184h-172zM453 1699.5q0 69.5 49 119t118.5 49.5t118.5 -49.5t49 -119t-49 -118.5t-118.5 -49t-118.5 49t-49 118.5z M932 1699.5q0 69.5 49 119t118.5 49.5t119 -49.5t49.5 -119t-49.5 -118.5t-119 -49t-118.5 49t-49 118.5z" />
<glyph unicode="&#xdd;" horiz-adv-x="1449" d="M2 1386v60h813v-60h-192l73 -131l222 -350l204 363l60 118h-197v60h459v-60h-160l-70 -112l-280 -492v-723h176v-59h-770v59h174v723l-301 475l-98 129h-113zM631 1559l53 221q6 35 22.5 47t55.5 12h239q25 0 46.5 -7t21.5 -34q0 -23 -17.5 -36t-64.5 -40l-287 -163h-69z " />
<glyph unicode="&#xde;" horiz-adv-x="1409" d="M41 0v59h170l4 183v946l-4 198h-170v60h770v-60h-176l-4 -192h149q82 0 172 -2t173 -23.5t153 -68.5t111 -133q18 -39 26 -80t8 -84q0 -82 -28 -156q-35 -86 -90.5 -135t-120 -73.5t-131 -31t-121.5 -8.5h-301v-157l4 -183h176v-59h-770zM631 471q59 0 118.5 5t107.5 36 t78 95.5t30 183.5q0 125 -27 192.5t-72 99t-106.5 35.5t-128.5 4v-651z" />
<glyph unicode="&#xdf;" horiz-adv-x="1409" d="M35 0v59h137l4 131v682q0 86 2 156t12.5 127t34 105.5t66.5 89.5q63 63 170.5 96t253.5 33q133 0 231 -22.5t164 -62.5t98.5 -95.5t32.5 -120.5q0 -29 -8 -67t-35 -78t-76 -75.5t-131 -56.5l-38 -8l-38 -8q18 -4 37 -7t37 -8q72 -18 131.5 -45.5t101.5 -75t65.5 -118 t23.5 -174.5q0 -244 -106.5 -367t-293.5 -123q-53 0 -105 15.5t-91 54.5q-45 47 -55.5 105.5t-14.5 123.5h80q4 -68 8 -98.5t15 -50.5q10 -25 28.5 -36t38.5 -11q23 0 35 11t16 17q12 18 18.5 57.5t9.5 83.5t4 85t1 63q0 74 -2 154t-18 141q-16 59 -44 91t-61 47.5 t-67.5 19.5t-61.5 4v71q43 2 80 8.5t63.5 30t42 71.5t15.5 134q0 41 -6 90t-33 90q-23 39 -52.5 52.5t-56.5 13.5q-35 0 -57.5 -15.5t-36.5 -33.5q-16 -20 -24.5 -47t-13.5 -65t-6 -92t-1 -130v-844l4 -119h82v-59h-610z" />
<glyph unicode="&#xe0;" horiz-adv-x="1236" d="M66 285q0 27 8 81t49 105q25 31 56.5 51.5t75.5 35.5t102 28l137 28l213 43q-2 41 -2 79t-5 77q0 16 -3 40t-15 46.5t-35.5 38.5t-66.5 16q-41 0 -64.5 -16t-36 -38.5t-15.5 -47.5l-5 -41q-2 -21 -7.5 -46.5t-20.5 -47t-47 -36.5t-87 -15q-84 0 -113.5 29.5t-29.5 74.5 q0 29 14 68t37 67q33 43 85 66.5t110.5 35t120 13.5t114.5 2q33 0 88 -2t113.5 -16.5t113 -46t86.5 -89.5q29 -53 33 -122.5t4 -137.5v-338q0 -47 1 -83.5t9.5 -64.5t27.5 -42t56 -14q12 0 24.5 1t25.5 3v-60q-113 -16 -176.5 -20t-92.5 -4q-104 0 -154.5 29.5t-74.5 113.5 q-14 -23 -34.5 -48.5t-55.5 -48t-87.5 -37.5t-127.5 -15q-172 0 -260 75.5t-88 229.5zM279 1413q0 23 17 28t48 5h205h11q48 0 66 -16q19 -18 36 -68l83 -289h-67l-371 291q-10 10 -19 21.5t-9 27.5zM449 283q0 -27 4 -61t15 -63.5t32.5 -50t58.5 -20.5q33 0 65.5 21.5 t53.5 62.5q12 25 18 58.5t9.5 71.5t4.5 75t1 65v76q0 37 -2 74q-57 -16 -96.5 -29.5t-66 -30t-44 -37t-29.5 -51.5q-16 -41 -20 -86.5t-4 -74.5z" />
<glyph unicode="&#xe1;" horiz-adv-x="1236" d="M66 285q0 27 8 81t49 105q25 31 56.5 51.5t75.5 35.5t102 28l137 28l213 43q-2 41 -2 79t-5 77q0 16 -3 40t-15 46.5t-35.5 38.5t-66.5 16q-41 0 -64.5 -16t-36 -38.5t-15.5 -47.5l-5 -41q-2 -21 -7.5 -46.5t-20.5 -47t-47 -36.5t-87 -15q-84 0 -113.5 29.5t-29.5 74.5 q0 29 14 68t37 67q33 43 85 66.5t110.5 35t120 13.5t114.5 2q33 0 88 -2t113.5 -16.5t113 -46t86.5 -89.5q29 -53 33 -122.5t4 -137.5v-338q0 -47 1 -83.5t9.5 -64.5t27.5 -42t56 -14q12 0 24.5 1t25.5 3v-60q-113 -16 -176.5 -20t-92.5 -4q-104 0 -154.5 29.5t-74.5 113.5 q-14 -23 -34.5 -48.5t-55.5 -48t-87.5 -37.5t-127.5 -15q-172 0 -260 75.5t-88 229.5zM449 283q0 -27 4 -61t15 -63.5t32.5 -50t58.5 -20.5q33 0 65.5 21.5t53.5 62.5q12 25 18 58.5t9.5 71.5t4.5 75t1 65v76q0 37 -2 74q-57 -16 -96.5 -29.5t-66 -30t-44 -37t-29.5 -51.5 q-16 -41 -20 -86.5t-4 -74.5zM481 1073l86 289q16 49 35 69q15 16 59 16q9 0 19 -1h205q31 0 48 -5t17 -28q0 -16 -9 -27.5t-19 -21.5l-371 -291h-70z" />
<glyph unicode="&#xe2;" horiz-adv-x="1236" d="M66 285q0 27 8 81t49 105q25 31 56.5 51.5t75.5 35.5t102 28l137 28l213 43q-2 41 -2 79t-5 77q0 16 -3 40t-15 46.5t-35.5 38.5t-66.5 16q-41 0 -64.5 -16t-36 -38.5t-15.5 -47.5l-5 -41q-2 -21 -7.5 -46.5t-20.5 -47t-47 -36.5t-87 -15q-84 0 -113.5 29.5t-29.5 74.5 q0 29 14 68t37 67q33 43 85 66.5t110.5 35t120 13.5t114.5 2q33 0 88 -2t113.5 -16.5t113 -46t86.5 -89.5q29 -53 33 -122.5t4 -137.5v-338q0 -47 1 -83.5t9.5 -64.5t27.5 -42t56 -14q12 0 24.5 1t25.5 3v-60q-113 -16 -176.5 -20t-92.5 -4q-104 0 -154.5 29.5t-74.5 113.5 q-14 -23 -34.5 -48.5t-55.5 -48t-87.5 -37.5t-127.5 -15q-172 0 -260 75.5t-88 229.5zM346 1069l248 377h92l262 -377h-278l-119 172l-111 -172h-94zM449 283q0 -27 4 -61t15 -63.5t32.5 -50t58.5 -20.5q33 0 65.5 21.5t53.5 62.5q12 25 18 58.5t9.5 71.5t4.5 75t1 65v76 q0 37 -2 74q-57 -16 -96.5 -29.5t-66 -30t-44 -37t-29.5 -51.5q-16 -41 -20 -86.5t-4 -74.5z" />
<glyph unicode="&#xe3;" horiz-adv-x="1236" d="M66 285q0 27 8 81t49 105q25 31 56.5 51.5t75.5 35.5t102 28l137 28l213 43q-2 41 -2 79t-5 77q0 16 -3 40t-15 46.5t-35.5 38.5t-66.5 16q-41 0 -64.5 -16t-36 -38.5t-15.5 -47.5l-5 -41q-2 -21 -7.5 -46.5t-20.5 -47t-47 -36.5t-87 -15q-84 0 -113.5 29.5t-29.5 74.5 q0 29 14 68t37 67q33 43 85 66.5t110.5 35t120 13.5t114.5 2q33 0 88 -2t113.5 -16.5t113 -46t86.5 -89.5q29 -53 33 -122.5t4 -137.5v-338q0 -47 1 -83.5t9.5 -64.5t27.5 -42t56 -14q12 0 24.5 1t25.5 3v-60q-113 -16 -176.5 -20t-92.5 -4q-104 0 -154.5 29.5t-74.5 113.5 q-14 -23 -34.5 -48.5t-55.5 -48t-87.5 -37.5t-127.5 -15q-172 0 -260 75.5t-88 229.5zM244 1163l43 97q35 66 71.5 104.5t108.5 38.5q31 0 59.5 -7t57.5 -16l137 -47l47 -12q25 -6 49 -6q41 0 61.5 16.5t43.5 48.5l61 -34l-31 -66l-40 -75q-17 -32 -38.5 -53.5t-48 -31.5 t-63.5 -10q-29 0 -51.5 4t-51.5 12l-135 48q-23 10 -46 16t-52 6q-51 0 -74.5 -22.5t-40.5 -45.5zM449 283q0 -27 4 -61t15 -63.5t32.5 -50t58.5 -20.5q33 0 65.5 21.5t53.5 62.5q12 25 18 58.5t9.5 71.5t4.5 75t1 65v76q0 37 -2 74q-57 -16 -96.5 -29.5t-66 -30t-44 -37 t-29.5 -51.5q-16 -41 -20 -86.5t-4 -74.5z" />
<glyph unicode="&#xe4;" horiz-adv-x="1236" d="M66 285q0 27 8 81t49 105q25 31 56.5 51.5t75.5 35.5t102 28l137 28l213 43q-2 41 -2 79t-5 77q0 16 -3 40t-15 46.5t-35.5 38.5t-66.5 16q-41 0 -64.5 -16t-36 -38.5t-15.5 -47.5l-5 -41q-2 -21 -7.5 -46.5t-20.5 -47t-47 -36.5t-87 -15q-84 0 -113.5 29.5t-29.5 74.5 q0 29 14 68t37 67q33 43 85 66.5t110.5 35t120 13.5t114.5 2q33 0 88 -2t113.5 -16.5t113 -46t86.5 -89.5q29 -53 33 -122.5t4 -137.5v-338q0 -47 1 -83.5t9.5 -64.5t27.5 -42t56 -14q12 0 24.5 1t25.5 3v-60q-113 -16 -176.5 -20t-92.5 -4q-104 0 -154.5 29.5t-74.5 113.5 q-14 -23 -34.5 -48.5t-55.5 -48t-87.5 -37.5t-127.5 -15q-172 0 -260 75.5t-88 229.5zM264 1260q0 70 48 116.5t114 46.5q68 0 115 -49t47 -114.5t-46 -112.5t-116 -47q-68 0 -115 47t-47 113zM449 283q0 -27 4 -61t15 -63.5t32.5 -50t58.5 -20.5q33 0 65.5 21.5t53.5 62.5 q12 25 18 58.5t9.5 71.5t4.5 75t1 65v76q0 37 -2 74q-57 -16 -96.5 -29.5t-66 -30t-44 -37t-29.5 -51.5q-16 -41 -20 -86.5t-4 -74.5zM686 1260q0 70 48 116.5t113.5 46.5t114 -48t48.5 -115q0 -66 -47.5 -113t-115 -47t-114.5 47q-23 23 -35 52.5t-12 60.5z" />
<glyph unicode="&#xe5;" horiz-adv-x="1236" d="M66 285q0 27 8 81t49 105q25 31 56.5 51.5t75.5 35.5t102 28l137 28l213 43q-2 41 -2 79t-5 77q0 16 -3 40t-15 46.5t-35.5 38.5t-66.5 16q-41 0 -64.5 -16t-36 -38.5t-15.5 -47.5l-5 -41q-2 -21 -7.5 -46.5t-20.5 -47t-47 -36.5t-87 -15q-84 0 -113.5 29.5t-29.5 74.5 q0 29 14 68t37 67q33 43 85 66.5t110.5 35t120 13.5t114.5 2q33 0 88 -2t113.5 -16.5t113 -46t86.5 -89.5q29 -53 33 -122.5t4 -137.5v-338q0 -47 1 -83.5t9.5 -64.5t27.5 -42t56 -14q12 0 24.5 1t25.5 3v-60q-113 -16 -176.5 -20t-92.5 -4q-104 0 -154.5 29.5t-74.5 113.5 q-14 -23 -34.5 -48.5t-55.5 -48t-87.5 -37.5t-127.5 -15q-172 0 -260 75.5t-88 229.5zM436 1274q0 39 15.5 74.5t41 62.5t60.5 42t76 15q39 0 74.5 -15t62.5 -41t42 -61.5t15 -76.5t-15 -76t-42 -60.5t-62.5 -41t-74.5 -15.5q-37 0 -73 14.5t-62 43.5q-29 27 -43.5 62.5 t-14.5 72.5zM449 283q0 -27 4 -61t15 -63.5t32.5 -50t58.5 -20.5q33 0 65.5 21.5t53.5 62.5q12 25 18 58.5t9.5 71.5t4.5 75t1 65v76q0 37 -2 74q-57 -16 -96.5 -29.5t-66 -30t-44 -37t-29.5 -51.5q-16 -41 -20 -86.5t-4 -74.5zM516 1274q0 -47 33 -80q37 -33 82 -33 q47 0 79.5 34t32.5 79q0 49 -32.5 82t-79.5 33t-81 -33t-34 -82z" />
<glyph unicode="&#xe6;" horiz-adv-x="1835" d="M76 279q0 33 9 85t50 101q25 31 53.5 50.5t70.5 33.5t102.5 27.5t150.5 29.5q57 10 113 22l112 23q0 82 -6 162q-2 18 -5 42t-15.5 43t-36 33.5t-66.5 14.5q-45 0 -71.5 -12t-40 -30.5t-18.5 -37t-7 -30.5q-2 -16 -3 -34t-5 -34q-4 -23 -12.5 -42t-25.5 -33.5t-47 -24 t-75 -9.5q-49 0 -76.5 11.5t-41 28t-16.5 35t-3 32.5q0 8 3 35.5t21.5 61.5t59.5 69t117 55q43 12 105.5 20.5t162.5 8.5q51 0 118.5 -6t125.5 -31q29 -14 45 -27.5t32 -29.5q18 18 41 36.5t55.5 34t80 24.5t114.5 9q55 0 141.5 -13.5t176.5 -66.5q68 -41 107.5 -91 t60 -103.5t27.5 -105.5t12 -97h-656q0 -92 5 -168t32 -141q6 -16 19.5 -42t40 -52.5t67.5 -45t100 -18.5q63 0 113.5 25.5t88.5 63.5t64.5 80t45.5 75l65 -31q-31 -56 -68.5 -112t-95 -100t-143.5 -72.5t-211 -28.5q-98 0 -165.5 14t-113 34.5t-72 43t-40.5 37.5 q-25 25 -36 44t-26 50q-12 -41 -33.5 -82t-63.5 -75t-108.5 -54.5t-168.5 -20.5q-92 0 -157 22.5t-104.5 63.5t-57 97.5t-17.5 122.5zM459 293q0 -31 2 -68t14 -68.5t36 -54t67 -22.5q33 0 62.5 14.5t49.5 42.5q18 23 27.5 50.5t13.5 75.5t5 125t1 200h2l-88 -26 q-47 -13 -71 -25q-66 -31 -93.5 -90.5t-27.5 -153.5zM1116 616h230q0 51 -1 110q-1 58 -11.5 108.5t-32 84t-60.5 33.5q-4 0 -14 -1t-23.5 -7t-27 -20.5t-25.5 -38.5q-29 -57 -32 -131.5t-3 -137.5z" />
<glyph unicode="&#xe7;" horiz-adv-x="1110" d="M86 492q0 141 46 235t99 147q55 55 118 85t121 44.5t107.5 17.5t75.5 3q88 0 167 -16.5t137.5 -47t92 -77.5t33.5 -109q0 -72 -45 -114t-112 -42q-25 0 -52.5 8.5t-50 27t-37 48t-14.5 72.5l4 60q0 59 -30.5 86.5t-67.5 27.5q-59 0 -93 -41t-51.5 -103.5t-22.5 -136 t-5 -137t4 -143.5t26.5 -151.5t69.5 -120.5t133 -49q35 0 70 11t63 32q66 41 99 103t57 122l68 -25q-25 -55 -55.5 -114.5t-83 -109.5t-131 -82t-197.5 -32q-100 0 -197.5 29t-174.5 91.5t-124 162t-47 238.5zM342 -395l43 53q20 -18 44 -33.5t63 -15.5q55 0 80.5 40 t25.5 91q0 66 -26.5 89.5t-45.5 23.5q-25 0 -37 -13.5t-18 -33t-7 -41t-1 -35.5h-64v155q49 12 96.5 21.5t100.5 9.5q61 0 106.5 -17.5t75 -45t45 -63.5t15.5 -75t-15.5 -75.5t-47.5 -66.5t-82 -48.5t-120 -18.5q-90 0 -144 34t-87 65z" />
<glyph unicode="&#xe8;" horiz-adv-x="1236" d="M82 495.5q0 96.5 31.5 190.5t99.5 169t174.5 121t255.5 46q37 0 85 -4t100.5 -18.5t106.5 -41t101 -71.5q45 -43 69.5 -86t38 -87t17.5 -87t6 -84h-659q0 -74 3 -144.5t19 -136.5q4 -14 15.5 -48t38 -67.5t70.5 -59.5t114 -26q68 0 120 27t91 64.5t65 79.5l46 73l61 -31 l-61.5 -102t-92 -101t-141.5 -77t-209 -31q-156 0 -263.5 47t-175 123t-97 171t-29.5 191.5zM279 1413q0 23 17 28t48 5h205h11q48 0 66 -16q19 -18 36 -68l83 -289h-67l-371 291q-10 10 -19 21.5t-9 27.5zM508 610h231l2 82q0 21 -1 42q-1 65 -17 122q-10 35 -24.5 54.5 t-28 27.5t-24.5 9t-17 1t-18.5 -2t-27 -11t-28.5 -28.5t-25 -52.5q-16 -55 -19 -120t-3 -124z" />
<glyph unicode="&#xe9;" horiz-adv-x="1236" d="M82 495.5q0 96.5 31.5 190.5t99.5 169t174.5 121t255.5 46q37 0 85 -4t100.5 -18.5t106.5 -41t101 -71.5q45 -43 69.5 -86t38 -87t17.5 -87t6 -84h-659q0 -74 3 -144.5t19 -136.5q4 -14 15.5 -48t38 -67.5t70.5 -59.5t114 -26q68 0 120 27t91 64.5t65 79.5l46 73l61 -31 l-61.5 -102t-92 -101t-141.5 -77t-209 -31q-156 0 -263.5 47t-175 123t-97 171t-29.5 191.5zM481 1073l86 289q16 49 35 69q15 16 59 16q9 0 19 -1h205q31 0 48 -5t17 -28q0 -16 -9 -27.5t-19 -21.5l-371 -291h-70zM508 610h231l2 82q0 21 -1 42q-1 65 -17 122 q-10 35 -24.5 54.5t-28 27.5t-24.5 9t-17 1t-18.5 -2t-27 -11t-28.5 -28.5t-25 -52.5q-16 -55 -19 -120t-3 -124z" />
<glyph unicode="&#xea;" horiz-adv-x="1236" d="M82 495.5q0 96.5 31.5 190.5t99.5 169t174.5 121t255.5 46q37 0 85 -4t100.5 -18.5t106.5 -41t101 -71.5q45 -43 69.5 -86t38 -87t17.5 -87t6 -84h-659q0 -74 3 -144.5t19 -136.5q4 -14 15.5 -48t38 -67.5t70.5 -59.5t114 -26q68 0 120 27t91 64.5t65 79.5l46 73l61 -31 l-61.5 -102t-92 -101t-141.5 -77t-209 -31q-156 0 -263.5 47t-175 123t-97 171t-29.5 191.5zM379 1069l248 377h92l262 -377h-279l-118 172l-111 -172h-94zM508 610h231l2 82q0 21 -1 42q-1 65 -17 122q-10 35 -24.5 54.5t-28 27.5t-24.5 9t-17 1t-18.5 -2t-27 -11 t-28.5 -28.5t-25 -52.5q-16 -55 -19 -120t-3 -124z" />
<glyph unicode="&#xeb;" horiz-adv-x="1236" d="M82 495.5q0 96.5 31.5 190.5t99.5 169t174.5 121t255.5 46q37 0 85 -4t100.5 -18.5t106.5 -41t101 -71.5q45 -43 69.5 -86t38 -87t17.5 -87t6 -84h-659q0 -74 3 -144.5t19 -136.5q4 -14 15.5 -48t38 -67.5t70.5 -59.5t114 -26q68 0 120 27t91 64.5t65 79.5l46 73l61 -31 l-61.5 -102t-92 -101t-141.5 -77t-209 -31q-156 0 -263.5 47t-175 123t-97 171t-29.5 191.5zM272 1260q0 70 48.5 116.5t113.5 46.5q68 0 115 -49t47 -114.5t-46 -112.5t-116 -47q-68 0 -115 47t-47 113zM508 610h231l2 82q0 21 -1 42q-1 65 -17 122q-10 35 -24.5 54.5 t-28 27.5t-24.5 9t-17 1t-18.5 -2t-27 -11t-28.5 -28.5t-25 -52.5q-16 -55 -19 -120t-3 -124zM694 1260q0 70 48.5 116.5t114 46.5t113.5 -48t48 -115q0 -66 -47 -113t-115 -47t-115 47q-23 23 -35 52.5t-12 60.5z" />
<glyph unicode="&#xec;" horiz-adv-x="724" d="M25 1413q0 23 17 28t48 5h205h11q48 0 66 -16q19 -18 36 -68l84 -289h-68l-371 291q-10 10 -19 21.5t-9 27.5zM35 0v59h137l4 127v594l-4 148h-137v59h215q55 0 90 1l65.5 2l65.5 2q35 1 90 5l-4 -157v-652l4 -129h139v-59h-665z" />
<glyph unicode="&#xed;" horiz-adv-x="724" d="M35 0v59h137l4 127v594l-4 148h-137v59h215q55 0 90 1l65.5 2l65.5 2q35 1 90 5l-4 -157v-652l4 -129h139v-59h-665zM225 1073l86 289q16 49 35 69q15 16 59 16q9 0 19 -1h205q31 0 48 -5t17 -28q0 -16 -9 -27.5t-19 -21.5l-371 -291h-70z" />
<glyph unicode="&#xee;" horiz-adv-x="724" d="M35 0v59h137l4 127v594l-4 148h-137v59h215q55 0 90 1l65.5 2l65.5 2q35 1 90 5l-4 -157v-652l4 -129h139v-59h-665zM90 1069l248 377h92l262 -377h-278l-119 172l-111 -172h-94z" />
<glyph unicode="&#xef;" horiz-adv-x="724" d="M-16 1260q0 70 48 116.5t113 46.5q68 0 115 -49t47 -114.5t-46 -112.5t-116 -47q-68 0 -114.5 47t-46.5 113zM35 0v59h137l4 127v594l-4 148h-137v59h215q55 0 90 1l65.5 2l65.5 2q35 1 90 5l-4 -157v-652l4 -129h139v-59h-665zM406 1260q0 70 48 116.5t113.5 46.5 t113.5 -48t48 -115q0 -66 -47 -113t-114.5 -47t-114.5 47q-23 23 -35 52.5t-12 60.5z" />
<glyph unicode="&#xf0;" horiz-adv-x="1323" d="M82 500q0 154 57.5 254t140 160.5t178 85t171.5 24.5q66 0 101.5 -12.5t57.5 -22.5q-4 43 -16 93.5t-51 125.5l-330 -98l-33 80l316 92q-41 55 -82 86t-82 57l39 43q117 -33 183.5 -65.5t119.5 -67.5l256 76l33 -80l-205 -59q23 -20 56.5 -54t74.5 -92q72 -104 113 -235 t41 -273q0 -113 -28 -219t-87 -198q-45 -68 -95 -113t-105.5 -71.5t-116 -37t-125.5 -10.5q-111 0 -215.5 30t-186.5 93.5t-131 165t-49 242.5zM504 487q0 -88 4 -166.5t14 -140.5q4 -25 12.5 -50.5t23.5 -46t37.5 -33.5t57.5 -13q49 0 82 24.5t52.5 79t27.5 140.5t8 211 q0 92 -4 190t-26 170l-10.5 27.5t-20.5 35t-38 29.5t-58.5 12t-58 -13t-38 -30.5t-21.5 -34.5l-11 -28q-25 -78 -29 -174.5t-4 -188.5z" />
<glyph unicode="&#xf1;" horiz-adv-x="1409" d="M37 0v59h133l4 121v608l-4 140h-133v61h203h96q39 0 71.5 2t66.5 5l81 8l4 -170q20 33 47 66.5t66 60t95 43t138 16.5q59 0 130 -15.5t118 -52.5q37 -29 55.5 -65.5t27.5 -76.5t10 -79t1 -74v-477l4 -121h138v-59h-646v59h117l4 123v463q0 47 -1 79t-3 53.5t-5 35.5 t-7 29q-10 29 -23.5 45t-28 23.5t-26.5 8.5t-16 1q-51 0 -103 -50q-31 -29 -48 -64.5t-26.5 -73.5t-12.5 -77t-5 -75v-402l4 -119h117v-59h-643zM330 1163l43 97q35 66 71.5 104.5t108.5 38.5q31 0 59.5 -7t57.5 -16l137 -47l47 -12q25 -6 49 -6q41 0 61.5 16.5t43.5 48.5 l61 -34l-31 -66l-40 -75q-17 -32 -38.5 -53.5t-48 -31.5t-63.5 -10q-29 0 -51.5 4t-51.5 12l-135 48q-23 10 -46 16t-52 6q-51 0 -74.5 -22.5t-40.5 -45.5z" />
<glyph unicode="&#xf2;" horiz-adv-x="1323" d="M80 498q0 137 48 236.5t128 163t186.5 94t223.5 30.5q147 0 268 -45q100 -39 159.5 -100.5t92.5 -127t43 -130t10 -109.5q0 -113 -38 -211t-111.5 -172t-181 -116t-249.5 -42q-111 0 -215 30t-185 94.5t-130 165t-49 239.5zM322 1413q0 23 17 28t48 5h205h11q48 0 66 -16 q19 -18 36 -68l83 -289h-67l-371 291q-10 10 -19 21.5t-9 27.5zM502 485q0 -88 4 -166.5t14 -140.5q4 -25 12.5 -50.5t23.5 -45t37.5 -32.5t57.5 -13q16 0 37 4t39 18.5t35.5 42t28.5 76.5q6 29 11 74t8 93t4 92t1 73v46q0 40 -3 93t-9 108.5t-19 92.5q-4 8 -11 26.5 t-20.5 35t-36 29.5t-54.5 13q-35 0 -57.5 -13t-37 -30.5t-22.5 -36t-10 -26.5q-25 -78 -29 -174.5t-4 -188.5z" />
<glyph unicode="&#xf3;" horiz-adv-x="1323" d="M80 498q0 137 48 236.5t128 163t186.5 94t223.5 30.5q147 0 268 -45q100 -39 159.5 -100.5t92.5 -127t43 -130t10 -109.5q0 -113 -38 -211t-111.5 -172t-181 -116t-249.5 -42q-111 0 -215 30t-185 94.5t-130 165t-49 239.5zM502 485q0 -88 4 -166.5t14 -140.5 q4 -25 12.5 -50.5t23.5 -45t37.5 -32.5t57.5 -13q16 0 37 4t39 18.5t35.5 42t28.5 76.5q6 29 11 74t8 93t4 92t1 73v46q0 40 -3 93t-9 108.5t-19 92.5q-4 8 -11 26.5t-20.5 35t-36 29.5t-54.5 13q-35 0 -57.5 -13t-37 -30.5t-22.5 -36t-10 -26.5q-25 -78 -29 -174.5 t-4 -188.5zM524 1073l86 289q16 49 35 69q15 16 59 16q9 0 19 -1h205q31 0 48 -5t17 -28q0 -16 -9 -27.5t-19 -21.5l-371 -291h-70z" />
<glyph unicode="&#xf4;" horiz-adv-x="1323" d="M80 498q0 137 48 236.5t128 163t186.5 94t223.5 30.5q147 0 268 -45q100 -39 159.5 -100.5t92.5 -127t43 -130t10 -109.5q0 -113 -38 -211t-111.5 -172t-181 -116t-249.5 -42q-111 0 -215 30t-185 94.5t-130 165t-49 239.5zM422 1069l248 377h92l262 -377h-279l-118 172 l-111 -172h-94zM502 485q0 -88 4 -166.5t14 -140.5q4 -25 12.5 -50.5t23.5 -45t37.5 -32.5t57.5 -13q16 0 37 4t39 18.5t35.5 42t28.5 76.5q6 29 11 74t8 93t4 92t1 73v46q0 40 -3 93t-9 108.5t-19 92.5q-4 8 -11 26.5t-20.5 35t-36 29.5t-54.5 13q-35 0 -57.5 -13 t-37 -30.5t-22.5 -36t-10 -26.5q-25 -78 -29 -174.5t-4 -188.5z" />
<glyph unicode="&#xf5;" horiz-adv-x="1323" d="M80 498q0 137 48 236.5t128 163t186.5 94t223.5 30.5q147 0 268 -45q100 -39 159.5 -100.5t92.5 -127t43 -130t10 -109.5q0 -113 -38 -211t-111.5 -172t-181 -116t-249.5 -42q-111 0 -215 30t-185 94.5t-130 165t-49 239.5zM319 1163l43 97q35 66 72 104.5t109 38.5 q31 0 59.5 -7t56.5 -16l138 -47l47 -12q25 -6 49 -6q41 0 61.5 16.5t42.5 48.5l62 -34l-31 -66l-40 -75q-17 -32 -38.5 -53.5t-48.5 -31.5t-63 -10q-29 0 -51.5 4t-51.5 12l-135 48q-23 10 -46.5 16t-51.5 6q-51 0 -75 -22.5t-40 -45.5zM502 485q0 -88 4 -166.5t14 -140.5 q4 -25 12.5 -50.5t23.5 -45t37.5 -32.5t57.5 -13q16 0 37 4t39 18.5t35.5 42t28.5 76.5q6 29 11 74t8 93t4 92t1 73v46q0 40 -3 93t-9 108.5t-19 92.5q-4 8 -11 26.5t-20.5 35t-36 29.5t-54.5 13q-35 0 -57.5 -13t-37 -30.5t-22.5 -36t-10 -26.5q-25 -78 -29 -174.5 t-4 -188.5z" />
<glyph unicode="&#xf6;" horiz-adv-x="1323" d="M80 498q0 137 48 236.5t128 163t186.5 94t223.5 30.5q147 0 268 -45q100 -39 159.5 -100.5t92.5 -127t43 -130t10 -109.5q0 -113 -38 -211t-111.5 -172t-181 -116t-249.5 -42q-111 0 -215 30t-185 94.5t-130 165t-49 239.5zM291 1260q0 70 48 116.5t114 46.5 q68 0 114.5 -49t46.5 -114.5t-46 -112.5t-115 -47q-68 0 -115 47t-47 113zM502 485q0 -88 4 -166.5t14 -140.5q4 -25 12.5 -50.5t23.5 -45t37.5 -32.5t57.5 -13q16 0 37 4t39 18.5t35.5 42t28.5 76.5q6 29 11 74t8 93t4 92t1 73v46q0 40 -3 93t-9 108.5t-19 92.5 q-4 8 -11 26.5t-20.5 35t-36 29.5t-54.5 13q-35 0 -57.5 -13t-37 -30.5t-22.5 -36t-10 -26.5q-25 -78 -29 -174.5t-4 -188.5zM713 1260q0 70 48 116.5t113.5 46.5t113.5 -48t48 -115q0 -66 -47 -113t-114.5 -47t-114.5 47q-23 23 -35 52.5t-12 60.5z" />
<glyph unicode="&#xf7;" d="M0 489v211h1364v-211h-1364zM543 925.5q0 57.5 39 99.5t100 42q63 0 102 -42t39 -99q0 -51 -36.5 -94.5t-102.5 -43.5q-61 0 -101 40t-40 97.5zM543 260q0 57 39 99t100 42q63 0 102 -43t39 -98q0 -53 -36.5 -95t-102.5 -42q-59 0 -100 39t-41 98z" />
<glyph unicode="&#xf8;" horiz-adv-x="1323" d="M80 502q0 135 49 233.5t130 160.5t185.5 93t214.5 31q63 0 112.5 -6t86.5 -15.5t64 -20.5l45 -20l94 113l69 -57l-81 -105q41 -35 73.5 -70.5t63.5 -101.5q27 -59 37 -118.5t10 -110.5q0 -115 -39 -213t-112.5 -170t-179 -113t-238.5 -41q-125 0 -200 24.5t-114 41.5 l-92 -111l-72 58l84 102q-25 20 -57.5 52t-62 80t-50 118t-20.5 166zM489 422q0 -31 3 -60l317 396l-12 77q-6 38 -21.5 66.5t-42 46t-69.5 17.5q-63 0 -91 -27t-42.5 -61.5t-22.5 -99t-12 -129t-5.5 -114t-1.5 -51.5v-61zM504 231q4 -35 10 -71.5t21.5 -65t41 -47 t70.5 -18.5q61 0 92 30.5t47 69.5q14 35 20.5 94.5t9.5 127.5q2 51 2 105v36q-1 72 -1 131z" />
<glyph unicode="&#xf9;" horiz-adv-x="1409" d="M35 930v59h133q70 0 115 1t85 3t84 4t111 7l-4 -230v-387q0 -72 1 -112.5t2 -62t2 -33t3 -24t6.5 -26.5t14.5 -27.5t28.5 -22.5t47.5 -9q31 0 69.5 17t69.5 65q35 53 41 119.5t8 164.5v338l-4 156h-137v59h137q70 0 114 1t83.5 3t85 4t112.5 7l-6 -226v-573l4 -146h145 v-59h-516l-4 158q-20 -37 -52 -80t-103 -74q-45 -18 -99.5 -27.5t-101.5 -9.5q-66 0 -141.5 18.5t-122.5 65.5q-29 27 -43.5 56.5t-21.5 69.5t-8 93.5t-1 126.5v371l-4 162h-133zM365 1413q0 23 17 28t48 5h205h11q48 0 66 -16q19 -18 36 -68l83 -289h-67l-371 291 q-10 10 -19 21.5t-9 27.5z" />
<glyph unicode="&#xfa;" horiz-adv-x="1409" d="M35 930v59h133q70 0 115 1t85 3t84 4t111 7l-4 -230v-387q0 -72 1 -112.5t2 -62t2 -33t3 -24t6.5 -26.5t14.5 -27.5t28.5 -22.5t47.5 -9q31 0 69.5 17t69.5 65q35 53 41 119.5t8 164.5v338l-4 156h-137v59h137q70 0 114 1t83.5 3t85 4t112.5 7l-6 -226v-573l4 -146h145 v-59h-516l-4 158q-20 -37 -52 -80t-103 -74q-45 -18 -99.5 -27.5t-101.5 -9.5q-66 0 -141.5 18.5t-122.5 65.5q-29 27 -43.5 56.5t-21.5 69.5t-8 93.5t-1 126.5v371l-4 162h-133zM567 1073l86 289q16 49 35 69q15 16 59 16q9 0 19 -1h205q31 0 48 -5t17 -28q0 -16 -9 -27.5 t-19 -21.5l-371 -291h-70z" />
<glyph unicode="&#xfb;" horiz-adv-x="1409" d="M35 930v59h133q70 0 115 1t85 3t84 4t111 7l-4 -230v-387q0 -72 1 -112.5t2 -62t2 -33t3 -24t6.5 -26.5t14.5 -27.5t28.5 -22.5t47.5 -9q31 0 69.5 17t69.5 65q35 53 41 119.5t8 164.5v338l-4 156h-137v59h137q70 0 114 1t83.5 3t85 4t112.5 7l-6 -226v-573l4 -146h145 v-59h-516l-4 158q-20 -37 -52 -80t-103 -74q-45 -18 -99.5 -27.5t-101.5 -9.5q-66 0 -141.5 18.5t-122.5 65.5q-29 27 -43.5 56.5t-21.5 69.5t-8 93.5t-1 126.5v371l-4 162h-133zM432 1069l248 377h92l262 -377h-278l-119 172l-111 -172h-94z" />
<glyph unicode="&#xfc;" horiz-adv-x="1409" d="M35 930v59h133q70 0 115 1t85 3t84 4t111 7l-4 -230v-387q0 -72 1 -112.5t2 -62t2 -33t3 -24t6.5 -26.5t14.5 -27.5t28.5 -22.5t47.5 -9q31 0 69.5 17t69.5 65q35 53 41 119.5t8 164.5v338l-4 156h-137v59h137q70 0 114 1t83.5 3t85 4t112.5 7l-6 -226v-573l4 -146h145 v-59h-516l-4 158q-20 -37 -52 -80t-103 -74q-45 -18 -99.5 -27.5t-101.5 -9.5q-66 0 -141.5 18.5t-122.5 65.5q-29 27 -43.5 56.5t-21.5 69.5t-8 93.5t-1 126.5v371l-4 162h-133zM352 1260q0 70 48.5 116.5t113.5 46.5q68 0 115 -49t47 -114.5t-46 -112.5t-116 -47 q-68 0 -115 47t-47 113zM774 1260q0 70 48 116.5t113.5 46.5t114 -48t48.5 -115q0 -66 -47 -113t-115 -47t-115 47q-23 23 -35 52.5t-12 60.5z" />
<glyph unicode="&#xfd;" horiz-adv-x="1193" d="M0 930v59h713v-59h-146l49 -123l46 -100l34 -81l35 -87l43 -117l150 389l43 119h-142v59h365v-59h-133l-53 -119l-143 -362l-142 -361l-45 -105l-47 -106q-35 -74 -68 -134t-70.5 -103t-86 -68t-113.5 -25q-104 0 -172 60.5t-68 165.5q0 86 48 131t108 45q68 0 105.5 -44 t37.5 -104q0 -23 -4 -35t-9 -23t-9 -21.5t-4 -24.5q0 -2 1 -8t5 -13.5t13 -12.5t26 -5q47 0 78.5 44t70.5 114l70 137l-387 854l-62 123h-137zM516 1073l86 289q16 49 35 69q15 16 58 16q9 0 20 -1h205q31 0 48 -5t17 -28q0 -16 -9 -27.5t-20 -21.5l-370 -291h-70z" />
<glyph unicode="&#xfe;" d="M23 -383h133l4 129v1499l-4 141h-133v60h196q51 0 89 1t73 3t73 5l93 7l-6 -166v-426l8 15q47 76 121.5 101.5t152.5 25.5q104 0 189.5 -39t143.5 -109.5t90 -170t32 -218.5q0 -92 -20.5 -180t-75.5 -162q-49 -66 -131 -114t-199 -48q-41 0 -90 9.5t-92 29.5 q-53 23 -81 52.5t-50 60.5v-375l4 -131h135v-63h-655v63zM543 440q0 -33 1 -55.5t2 -37.5t1 -30q2 -47 11 -89t27.5 -73.5t48.5 -50t73 -18.5q23 0 41 5t28 13q47 35 66.5 142.5t19.5 253.5q0 131 -13 211t-35.5 123t-52.5 57t-61 14q-37 0 -61.5 -14t-39.5 -32.5t-22.5 -37 t-9.5 -26.5q-10 -27 -14 -62t-7 -71.5t-3 -72.5v-67v-82z" />
<glyph unicode="&#xff;" horiz-adv-x="1193" d="M0 930v59h713v-59h-146l49 -123l46 -100l34 -81l35 -87l43 -117l150 389l43 119h-142v59h365v-59h-133l-53 -119l-143 -362l-142 -361l-45 -105l-47 -106q-35 -74 -68 -134t-70.5 -103t-86 -68t-113.5 -25q-104 0 -172 60.5t-68 165.5q0 86 48 131t108 45q68 0 105.5 -44 t37.5 -104q0 -23 -4 -35t-9 -23t-9 -21.5t-4 -24.5q0 -2 1 -8t5 -13.5t13 -12.5t26 -5q47 0 78.5 44t70.5 114l70 137l-387 854l-62 123h-137zM274 1260q0 70 48.5 116.5t113.5 46.5q68 0 115 -49t47 -114.5t-46 -112.5t-116 -47q-68 0 -115 47t-47 113zM696 1260 q0 70 48.5 116.5t114 46.5t113.5 -48t48 -115q0 -66 -47 -113t-114.5 -47t-115.5 47q-23 23 -35 52.5t-12 60.5z" />
<glyph unicode="&#x152;" horiz-adv-x="2304" d="M90 713q0 41 5 103.5t28 139.5q29 104 89 204t171 183.5t217.5 109.5t219 26t194.5 -17q31 -4 49 -7l32 -5q13 -2 27.5 -3t34.5 -1h1036v-457h-65q-8 31 -18.5 66t-26 70.5t-37 69.5t-51.5 65q-49 45 -105.5 69.5t-117 34.5t-120 12t-110.5 2l-4 -227v-391q43 6 81 17 t79 52q51 51 63.5 110.5t16.5 119.5h67v-664h-67q-4 47 -9.5 90t-29.5 90q-20 39 -46 63t-51.5 36t-52 16t-51.5 6v-420l4 -206q35 -1 69.5 -1t68.5 1q69 2 134.5 14t126 42t113.5 83q39 39 63.5 79t37 75.5t17.5 67.5l9 58h68v-489h-1094q-37 -2 -58.5 -5t-66.5 -13 q-51 -10 -91 -16.5t-99 -6.5q-156 0 -292 51t-237.5 147.5t-161 237t-59.5 318.5zM549 727q0 -90 6 -182t23.5 -174t52.5 -154q37 -72 98.5 -123t153.5 -51q80 0 137 45q41 31 63.5 78t33.5 99t14.5 106.5t3.5 101.5v479q0 92 -5.5 151.5t-13.5 96.5t-15 55.5t-14 28.5 q-31 53 -88 87t-122 34q-72 0 -134 -37q-115 -68 -154.5 -224.5t-39.5 -416.5z" />
<glyph unicode="&#x153;" horiz-adv-x="1878" d="M80 502q0 143 53 243.5t136 162t186.5 89t203.5 27.5q74 0 129.5 -11.5t96.5 -27.5t68.5 -34.5t45.5 -32.5q16 14 41 32.5t64 36t94 28.5t133 11q137 0 235.5 -43t157.5 -104q43 -43 67 -86t36 -86t16 -83t6 -75h-661q2 -117 10 -211t55 -166q70 -104 197 -104 q68 0 119 25.5t89 63.5t65.5 80t45.5 74l64 -30q-25 -45 -58.5 -98.5t-91 -100.5t-142.5 -79t-212 -32q-135 0 -223 41q-47 20 -71.5 42l-45.5 42l-49 -40q-27 -22 -66.5 -39t-97 -29.5t-137.5 -12.5q-127 0 -230.5 37t-176 106.5t-112.5 166t-40 217.5zM500 473 q0 -43 2 -95t6 -102.5t11 -92.5t18 -64q14 -35 41.5 -56.5t72.5 -21.5q47 0 76 22.5t45 53.5q14 29 23.5 80t14.5 107t6 111.5t1 90.5q0 78 -5 151.5t-9 112.5q-4 33 -12.5 65.5t-23.5 59.5t-40 44t-63 17q-47 0 -75 -22.5t-43.5 -53t-21.5 -61.5t-8 -45q-4 -23 -6 -57.5 t-5 -75.5t-4 -85t-1 -83zM1188 616h235q1 30 1 61t-1 63q-2 65 -16 118q-10 33 -23.5 52.5t-28 28.5t-26.5 11t-18 2t-17.5 -1t-27 -10t-29.5 -28.5t-27 -56.5q-16 -57 -19 -118t-3 -122z" />
<glyph unicode="&#x178;" horiz-adv-x="1449" d="M2 1386v60h813v-60h-192l73 -131l222 -350l204 363l60 118h-197v60h459v-60h-160l-70 -112l-280 -492v-723h176v-59h-770v59h174v723l-301 475l-98 129h-113zM354 1699.5q0 69.5 49.5 119t119 49.5t118.5 -49.5t49 -119t-49 -118.5t-118.5 -49t-119 49t-49.5 118.5z M834 1699.5q0 69.5 49 119t118.5 49.5t118.5 -49.5t49 -119t-49 -118.5t-118.5 -49t-118.5 49t-49 118.5z" />
<glyph unicode="&#x2c6;" horiz-adv-x="598" d="M-2 1069l248 377h92l262 -377h-278l-119 172l-111 -172h-94z" />
<glyph unicode="&#x2dc;" horiz-adv-x="598" d="M-70 1163l43 97q35 66 72 104.5t109 38.5q31 0 59.5 -7t56.5 -16l138 -47l47 -12q25 -6 49 -6q41 0 61.5 16.5t42.5 48.5l62 -34l-31 -66l-40 -75q-17 -32 -38.5 -53.5t-48.5 -31.5t-63 -10q-29 0 -51.5 4t-51.5 12l-135 48q-23 10 -46.5 16t-51.5 6q-51 0 -75 -22.5 t-40 -45.5z" />
<glyph unicode="&#x2013;" horiz-adv-x="1193" d="M61 424v250h1069v-250h-1069z" />
<glyph unicode="&#x2014;" horiz-adv-x="1449" d="M57 428v242h1327v-242h-1327z" />
<glyph unicode="&#x2018;" horiz-adv-x="598" d="M76 1024q0 100 34.5 177t84 132.5t101.5 92t87 57.5l49 -72q-39 -25 -73.5 -51.5t-62.5 -60t-46.5 -75.5t-22.5 -98q20 6 38 10.5t44 4.5q43 0 80 -15.5t62.5 -42t40 -61.5t14.5 -74t-14.5 -75.5t-41 -64.5t-64.5 -45.5t-83 -17.5q-102 0 -164.5 78t-62.5 201z" />
<glyph unicode="&#x2019;" horiz-adv-x="598" d="M86 1272q0 39 14.5 74.5t41 64.5t63.5 46.5t84 17.5q102 0 164.5 -78t62.5 -201q0 -102 -36 -179t-85 -132.5t-101 -92t-87 -57.5l-47 74q43 29 79.5 56.5t71.5 76.5q33 47 41 80t13 72q-20 -6 -39 -10.5t-43 -4.5q-45 0 -81 15.5t-61.5 42t-40 61.5t-14.5 74z" />
<glyph unicode="&#x201a;" horiz-adv-x="598" d="M84 149.5q0 38.5 14.5 75.5t41 64.5t64.5 45t83 17.5q102 0 164.5 -77.5t62.5 -198.5q0 -102 -36 -179t-85 -132.5t-101 -92.5t-87 -57l-47 72q43 29 79.5 57.5t71.5 77.5q35 47 42 79.5t11 71.5l-37 -11q-17 -5 -44 -5q-43 0 -80 15.5t-62.5 42t-40 61.5t-14.5 73.5z " />
<glyph unicode="&#x201c;" horiz-adv-x="1067" d="M80 1026q0 102 35 179t84 132.5t101 90.5l87 59l47 -72q-39 -27 -73.5 -53.5t-62.5 -60t-46.5 -75.5t-22.5 -98l40.5 10.5t41.5 4.5q45 0 81 -15.5t62.5 -42t41 -61.5t14.5 -74t-14.5 -74.5t-41 -64.5t-64.5 -46t-83 -17q-102 0 -164.5 78.5t-62.5 199.5zM551 1026 q0 102 36 179t85 132.5t101 90.5l87 59l47 -72q-39 -27 -73.5 -53.5t-62.5 -60t-46 -75.5t-23 -98q20 6 39 10.5t43 4.5q88 0 142.5 -57.5t54.5 -135.5q0 -39 -14.5 -74.5t-41 -64.5t-64.5 -46t-83 -17q-102 0 -164.5 78.5t-62.5 199.5z" />
<glyph unicode="&#x201d;" horiz-adv-x="1067" d="M88 1272q0 39 14.5 74.5t41 64.5t64.5 46.5t83 17.5q102 0 164.5 -79t62.5 -200q0 -102 -34.5 -179t-84 -132.5t-101.5 -92t-87 -57.5l-47 72q53 37 90 66.5t60.5 62.5t35.5 69.5t19 88.5l-40 -12q-17 -5 -42 -5q-45 0 -82 15.5t-62.5 42t-40 62.5t-14.5 75zM563 1272 q0 39 14.5 74.5t41 64.5t63.5 46.5t84 17.5q102 0 164.5 -79t62.5 -200q0 -102 -35.5 -179t-85 -132.5t-101.5 -92t-87 -57.5l-47 72q53 37 90 66.5t60.5 62.5t36 69.5t18.5 88.5l-39 -12q-18 -5 -43 -5q-45 0 -81 15.5t-61.5 42t-40 62.5t-14.5 75z" />
<glyph unicode="&#x201e;" horiz-adv-x="1067" d="M84 149.5q0 38.5 14.5 75.5t41 64.5t64.5 45t83 17.5q102 0 164.5 -77.5t62.5 -198.5q0 -102 -36 -179t-85 -132.5t-101 -92.5t-87 -57l-47 72q55 37 92 66.5t59.5 62t34.5 69.5t18 88l-37 -11q-17 -5 -44 -5q-43 0 -80 15.5t-62.5 42t-40 61.5t-14.5 73.5zM557 149.5 q0 38.5 14.5 75.5t41 64.5t64.5 45t83 17.5q102 0 164.5 -77.5t62.5 -198.5q0 -102 -36 -179t-85 -132.5t-101 -92.5t-87 -57l-47 72q55 37 92 66.5t59.5 62t34.5 69.5t19 88l-38 -11q-17 -5 -44 -5q-43 0 -80 15.5t-62.5 42t-40 61.5t-14.5 73.5z" />
<glyph unicode="&#x2022;" horiz-adv-x="681" d="M49 721q0 57 22.5 110.5t61.5 94.5t93.5 64.5t119.5 23.5q57 0 109.5 -20.5t92.5 -59.5t62.5 -92.5t22.5 -118.5q0 -61 -20.5 -114.5t-57.5 -93.5t-90 -62.5t-117 -22.5q-70 0 -125 24.5t-94 65.5t-59.5 93.5t-20.5 107.5z" />
<glyph unicode="&#x2026;" horiz-adv-x="2048" d="M145 164q0 41 15.5 76.5t43 63.5t63.5 43t77 15t77 -15t63.5 -43t43 -63.5t15.5 -76.5q0 -84 -57.5 -141.5t-141.5 -57.5q-80 0 -139 60q-29 27 -44.5 63.5t-15.5 75.5zM827 164q0 41 15.5 76.5t43 63.5t63.5 43t77 15t77 -15t63.5 -43t43 -63.5t15.5 -76.5 q0 -84 -57.5 -141.5t-141.5 -57.5q-80 0 -139 60q-29 27 -44.5 63.5t-15.5 75.5zM1509 164q0 41 15.5 76.5t43 63.5t63.5 43t77 15t77 -15t63.5 -43t43 -63.5t15.5 -76.5q0 -84 -57.5 -141.5t-141.5 -57.5q-80 0 -139 60q-29 27 -44.5 63.5t-15.5 75.5z" />
<glyph unicode="&#x2039;" horiz-adv-x="555" d="M37 481v92l430 332l53 -51l-151 -328l151 -323l-53 -43z" />
<glyph unicode="&#x203a;" horiz-adv-x="555" d="M39 209l151 330l-151 323l49 43l428 -323v-88l-428 -332z" />
<glyph unicode="&#x2122;" horiz-adv-x="1579" d="M53 1257q2 33 4 54.5t3 42.5l2 42q1 22 1 52q72 -2 145 -3t146 -1q72 0 145.5 1t145.5 3q2 -35 3 -56l2 -41l2 -41q1 -22 3 -53h-82q-12 39 -21 59.5t-20.5 31t-24.5 13.5t-32 3h-45v-467q0 -29 12.5 -37t36.5 -10l41 -4v-80q-37 2 -78 3t-88 1t-86 -1t-80 -3v80l33 4 q18 2 30.5 4t18.5 11t7.5 25.5t1.5 45.5v428h-46q-23 0 -37 -4t-23 -15.5t-17.5 -32t-20.5 -55.5h-82zM688 766v78l29 4q33 6 38 22.5t7 65.5v416l-6 6q-16 6 -25.5 8t-32.5 2v80q29 -2 54.5 -3t52 -1t51.5 1t49 3l191 -473l198 473q35 -2 57.5 -3t43 -1t44 1t62.5 3v-80 l-18 -2q-23 0 -35 -4t-17.5 -14.5t-6.5 -29t-1 -50.5v-371q0 -23 6.5 -35t40.5 -14l19 -2v-80q-35 2 -70 3t-69.5 1t-67.5 -1t-68 -3v80h13q20 0 30.5 4t15.5 13t6 26.5t1 46.5v258l-174 -426h-62l-176 430v-262q0 -31 1 -47.5t7.5 -25.5t18.5 -12t35 -5h18v-80q-33 2 -64 2 h-63h-66q-32 0 -67 -2z" />
<glyph unicode="&#xe000;" horiz-adv-x="990" d="M0 990h990v-990h-990v990z" />
<glyph unicode="&#xfb01;" horiz-adv-x="1492" d="M35 0v59h137l4 140v729h-141v59h141v139q2 59 14.5 125t65.5 121q43 45 129 75t227 30q27 0 84.5 -4.5t116.5 -26t104.5 -70.5t45.5 -137q0 -45 -15.5 -75.5t-39 -50t-49 -28t-44.5 -8.5q-51 0 -97 40t-46 118q0 27 6 57q6 25 7 33t1 18q0 31 -16.5 49.5t-42.5 18.5 q-25 0 -43 -14q-8 -8 -12.5 -16.5t-6.5 -26t-3 -47t-1 -78.5v-242h141v-59h-141v-731l4 -138h137v-59h-667zM803 0v59h137l4 127v594l-4 148h-135v57h213q55 0 90 1t65.5 2t65.5 3t90 4l-4 -155v-652l4 -129h139v-59h-665zM979 1300q0 70 45 124.5t135 54.5q76 0 127 -47.5 t51 -131.5q0 -68 -44 -123t-134 -55q-33 0 -64.5 10.5t-56.5 32.5q-59 53 -59 135z" />
<glyph unicode="&#xfb02;" horiz-adv-x="1492" d="M35 0v59h137l4 140v731h-141v59h141v137q2 59 14.5 125t65.5 121q18 18 49 38t75 34t105.5 23.5t143.5 9.5q141 0 222 -10.5t126 -18.5h22q53 0 92 1l72 2q35 1 73 4l91 7l-4 -149v-1114l4 -140h137v-59h-663v59h135l4 140v882q0 47 -1 90t-11 80q-6 31 -20.5 59.5 t-38 51t-57.5 37t-81 14.5q-63 0 -97 -18.5t-50.5 -46t-19.5 -60.5t-3 -59v-240h141v-59h-141v-731l4 -140h137v-59h-667z" />
<glyph unicode="&#xfb03;" horiz-adv-x="2260" d="M35 0v59h137l4 140v729h-141v59h141v139q2 59 14.5 124t65.5 120q39 39 91 60.5t106.5 30.5t101.5 11.5t74 2.5q49 0 115.5 -4.5t128 -28t103.5 -70.5t42 -133q0 -82 -48 -122t-108 -40q-68 0 -108.5 45t-40.5 111q0 29 6 57q4 12 6 24.5t2 26.5q0 41 -25.5 54.5 t-48.5 13.5q-35 0 -54 -15.5t-27.5 -42t-9.5 -59.5t-1 -65v-240h141v-59h-141v-731l4 -138h137v-59h-667zM803 0v59h137l4 140v729h-141v59h141v139q2 59 14.5 124t65.5 120q39 39 91 60.5t106.5 30.5t101.5 11.5t74 2.5q49 0 115.5 -4.5t128 -28t103.5 -70.5t42 -133 q0 -82 -48 -122t-108 -40q-68 0 -108.5 45t-40.5 111q0 29 6 57q4 12 6 24.5t2 26.5q0 41 -25.5 54.5t-48.5 13.5q-35 0 -54 -15.5t-27.5 -42t-9.5 -59.5t-1 -65v-240h141v-59h-141v-731l4 -138h137v-59h-667zM1571 0v59h137l4 127v594l-4 148h-137v59h215q55 0 90 1l65.5 2 l65.5 2q35 1 90 5l-4 -157v-652l4 -129h139v-59h-665zM1710 1300q0 39 15.5 74t41 60.5t60.5 41t76 15.5q39 0 73.5 -15.5t60 -41t41 -60.5t15.5 -74q0 -41 -15.5 -75.5t-41 -60t-60 -41t-73.5 -15.5q-78 0 -138 55q-55 59 -55 137z" />
<glyph unicode="&#xfb04;" horiz-adv-x="2260" d="M35 0v59h137l4 140v729h-141v59h141v139q2 59 14.5 124t65.5 120q39 39 91 60.5t106.5 30.5t101.5 11.5t74 2.5q49 0 115.5 -4.5t128 -28t103.5 -70.5t42 -133q0 -82 -48 -122t-108 -40q-68 0 -108.5 45t-40.5 111q0 29 6 57q4 12 6 24.5t2 26.5q0 41 -25.5 54.5 t-48.5 13.5q-35 0 -54 -15.5t-27.5 -42t-9.5 -59.5t-1 -65v-240h141v-59h-141v-731l4 -138h137v-59h-667zM803 0v59h137l4 140v729h-141v59h141v139q2 59 14.5 124t65.5 120q39 39 91 60.5t106.5 30.5t101.5 11.5t74 2.5q49 0 115.5 -4.5t128 -28t103.5 -70.5t42 -133 q0 -82 -48 -122t-108 -40q-68 0 -108.5 45t-40.5 111q0 29 6 57q4 12 6 24.5t2 26.5q0 41 -25.5 54.5t-48.5 13.5q-35 0 -54 -15.5t-27.5 -42t-9.5 -59.5t-1 -65v-240h141v-59h-141v-731l4 -138h137v-59h-667zM1569 0v59h135l4 140v1056l-4 131h-135v60h198q53 0 90 1t72 3 l73 4q38 2 93 6l-4 -147v-1114l4 -140h137v-59h-663z" />
</font>
</defs>
</svg>
